<svg width="606" height="180" viewBox="0 0 606 180" fill="none" xmlns="http://www.w3.org/2000/svg">
<g clip-path="url(#clip0_3458_50107)">
<path d="M4.63721 135.554L0 132.475V176.917H796.441V12.3978H791.804L787.746 3.5459L783.109 -1.07246L778.472 0.0821295H773.255L762.821 -3.7665L748.909 4.70049L740.215 -0.687597L734.998 -0.302734L725.723 -8L721.666 0.466992L715.29 5.85508L711.232 4.70049L706.015 5.47022L701.378 2.77617L696.741 7.00967L690.365 3.5459L683.409 3.16104L673.555 6.23994L669.497 6.62481L663.121 4.31563L653.267 9.31885L642.833 19.7102L635.298 20.095L630.661 20.8647L626.603 19.7102L620.807 20.095L616.749 36.6441L610.952 38.1836L606.315 37.029L602.258 42.802L592.404 48.19L584.289 37.7987L578.492 34.7198L573.855 38.5685L569.218 36.2593L559.943 40.8776L554.147 49.7295H550.089L544.872 51.6538L539.655 50.4992L535.598 46.2657L530.961 48.19L526.323 54.3479L521.107 50.4992L517.049 50.8841L512.991 55.5024L507.775 54.7327L501.978 45.8809L497.341 80.5186L492.704 76.6699L488.066 79.364L483.429 75.9002L478.792 83.5975H474.155L469.518 76.2851L464.88 74.3607L460.243 70.1273L449.809 67.8181L442.854 69.3575L435.898 68.5878L431.261 72.4364L426.623 68.9727L421.986 70.1273L417.349 69.3575L408.075 73.591L402.278 71.6667L393.004 72.4364L388.366 68.9727L383.729 72.8213L379.092 72.0516L374.455 78.5942L369.818 66.2786L365.18 68.5878L360.543 64.7392L351.269 67.4332L346.631 78.2094L336.198 78.9791L326.923 70.897L322.286 74.7456L317.069 70.897L312.432 72.8213L308.375 77.4397L303.158 78.2094L295.043 71.2818L288.666 72.0516L284.029 67.0483H279.392L274.755 71.2818H270.697L265.48 77.0548L260.843 69.3575L256.206 69.7424L251.569 58.5814L246.931 54.7327L242.294 40.1079L231.861 34.7198L227.223 35.4896L222.586 31.6409L213.312 38.1836L209.254 35.8744H204.037L199.4 42.0322L194.763 35.8744L190.126 38.9533L185.488 45.1111L179.692 40.4928L175.055 39.723L170.417 43.1868L165.78 42.0322L161.143 43.5717L156.506 117.85L151.869 109.768L147.231 112.462L137.957 109.383L133.32 100.531C131.194 99.1203 122.306 93.9888 122.306 93.9888L108.974 111.692L104.337 92.0645L99.7 89.7553L95.6425 90.1401L85.7884 96.6828L81.1512 97.4526L75.9343 100.916L70.7175 101.686L66.0803 101.301L62.0227 102.071L56.8058 101.686L52.1686 95.9131H48.1111L42.8942 131.705L38.257 130.551H33.6198L28.9826 127.857L23.1861 129.396L18.5488 132.475L9.27442 132.86L4.63721 135.554Z" fill="url(#paint0_linear_3458_50107)" fill-opacity="0.2"/>
<path d="M0 132.475L4.63721 135.554L9.27442 132.86L18.5488 132.475L23.1861 129.396L28.9826 127.857L33.6198 130.551H38.257L42.8942 131.705L48.1111 95.9131H52.1686L56.8058 101.686L62.0227 102.071L66.0802 101.301L70.7175 101.686L75.9343 100.916L81.1512 97.4525L85.7884 96.6828L95.6425 90.1401L99.7 89.7553L104.337 92.0645L108.974 111.692L122.306 93.9888C122.306 93.9888 131.194 99.1203 133.32 100.531L137.957 109.383L147.231 112.462L151.869 109.768L156.506 117.85L161.143 43.5717L165.78 42.0322L170.417 43.1868L175.055 39.723L179.692 40.4928L185.488 45.1111L190.126 38.9533L194.763 35.8744L199.4 42.0322L204.037 35.8744H209.254L213.312 38.1836L222.586 31.6409L227.223 35.4896L231.861 34.7198L242.294 40.1079L246.931 54.7327L251.569 58.5813L256.206 69.7424L260.843 69.3575L265.48 77.0548L270.697 71.2818H274.755L279.392 67.0483H284.029L288.666 72.0516L295.043 71.2818L303.158 78.2094L308.374 77.4396L312.432 72.8213L317.069 70.897L322.286 74.7456L326.923 70.897L336.198 78.9791L346.631 78.2094L351.269 67.4332L360.543 64.7392L365.18 68.5878L369.818 66.2786L374.455 78.5942L379.092 72.0516L383.729 72.8213L388.366 68.9727L393.004 72.4364L402.278 71.6667L408.075 73.591L417.349 69.3575L421.986 70.1272L426.623 68.9727L431.261 72.4364L435.898 68.5878L442.854 69.3575L449.809 67.8181L460.243 70.1272L464.88 74.3607L469.518 76.2851L474.155 83.5975H478.792L483.429 75.9002L488.066 79.364L492.704 76.6699L497.341 80.5186L501.978 45.8809L507.775 54.7327L512.991 55.5024L517.049 50.8841L521.107 50.4992L526.323 54.3479L530.961 48.19L535.598 46.2657L539.655 50.4992L544.872 51.6538L550.089 49.7295H554.147L559.943 40.8776L569.218 36.2593L573.855 38.5685L578.492 34.7198L584.289 37.7987L592.404 48.19L602.258 42.802L606.315 37.029L610.952 38.1836L616.749 36.6441L620.807 20.095L626.603 19.7102L630.661 20.8647L635.298 20.095L642.833 19.7102L653.267 9.31885L663.121 4.31563L669.497 6.6248L673.555 6.23994L683.409 3.16104L690.365 3.5459L696.741 7.00967L701.378 2.77617L706.015 5.47022L711.232 4.70049L715.29 5.85508L721.666 0.466992L725.723 -8L734.998 -0.302734L740.215 -0.687598L748.909 4.70049L762.821 -3.7665L773.255 0.082129H778.472L783.109 -1.07246L787.746 3.5459L791.804 12.3978H796.441" stroke="white" stroke-opacity="0.15"/>
</g>
<defs>
<linearGradient id="paint0_linear_3458_50107" x1="398.22" y1="17.5949" x2="398.22" y2="159.583" gradientUnits="userSpaceOnUse">
<stop stop-color="white" stop-opacity="0.2"/>
<stop offset="1" stop-color="white" stop-opacity="0"/>
</linearGradient>
<clipPath id="clip0_3458_50107">
<rect width="606" height="180" fill="white"/>
</clipPath>
</defs>
</svg>
