<svg width="141" height="32" viewBox="0 0 141 32" fill="none" xmlns="http://www.w3.org/2000/svg">
<mask id="mask0_11_2" style="mask-type:luminance" maskUnits="userSpaceOnUse" x="0" y="0" width="32" height="32">
<path d="M32 0H0V32H32V0Z" fill="white"/>
</mask>
<g mask="url(#mask0_11_2)">
<path d="M13.3125 32C19.8364 32 25.125 26.7114 25.125 20.1875C25.125 13.6636 19.8364 8.375 13.3125 8.375C6.78864 8.375 1.5 13.6636 1.5 20.1875C1.5 26.7114 6.78864 32 13.3125 32Z" fill="url(#paint0_linear_11_2)"/>
<g opacity="0.15">
<path d="M25.125 20.1875C25.125 23.3204 23.8805 26.3249 21.6652 28.5402C19.4499 30.7555 16.4454 32 13.3125 32C10.1796 32 7.17507 30.7555 4.9598 28.5402C2.74453 26.3249 1.5 23.3204 1.5 20.1875C1.5 19.8331 1.51688 19.4787 1.54641 19.1328C1.8078 22.073 3.16052 24.8088 5.3382 26.8015C7.51589 28.7941 10.3607 29.8993 13.3125 29.8993C16.2643 29.8993 19.1091 28.7941 21.2868 26.8015C23.4645 24.8088 24.8172 22.073 25.0786 19.1328C25.1081 19.4787 25.125 19.8331 25.125 20.1875Z" fill="black"/>
</g>
<g opacity="0.5">
<path d="M21.2441 16.2217C21.7101 16.2217 22.0879 15.8439 22.0879 15.3779C22.0879 14.9119 21.7101 14.5342 21.2441 14.5342C20.7782 14.5342 20.4004 14.9119 20.4004 15.3779C20.4004 15.8439 20.7782 16.2217 21.2441 16.2217Z" fill="white"/>
</g>
<g opacity="0.5">
<path d="M22.8477 16.3066C23.0807 16.3066 23.2695 16.1178 23.2695 15.8848C23.2695 15.6518 23.0807 15.4629 22.8477 15.4629C22.6147 15.4629 22.4258 15.6518 22.4258 15.8848C22.4258 16.1178 22.6147 16.3066 22.8477 16.3066Z" fill="white"/>
</g>
<path fill-rule="evenodd" clip-rule="evenodd" d="M20.0608 20.3158C20.061 19.9939 20.0611 19.6719 20.0611 19.35C20.0612 19.3502 20.0611 19.3498 20.0611 19.35C20.061 19.3498 20.0608 19.3489 20.0608 19.3486C20.0608 19.0129 20.0607 18.6772 20.0606 18.3416C20.0603 17.502 20.06 16.6624 20.0615 15.8227C20.0621 15.3882 19.9881 14.9702 19.8198 14.5685C19.6808 14.2374 19.4943 13.938 19.2549 13.6697C19.0193 13.4058 18.7533 13.1784 18.4399 13.0145C18.2496 12.9152 18.0519 12.8226 17.8474 12.7597C17.6182 12.6891 17.3795 12.6297 17.1415 12.6114C16.8729 12.5909 16.6022 12.5929 16.3316 12.595C16.2502 12.5956 16.1689 12.5962 16.0876 12.5962C15.9398 12.5961 15.7921 12.5961 15.6444 12.596C13.8707 12.595 12.0968 12.5941 10.3231 12.5965C10.2573 12.5967 10.1915 12.5962 10.1257 12.5958C9.83227 12.5938 9.53909 12.5918 9.24614 12.6401C8.93278 12.6918 8.6343 12.7837 8.35069 12.9182C8.05863 13.0564 7.79801 13.246 7.56037 13.467C7.30245 13.7065 7.09592 13.9849 6.93096 14.2924C6.80656 14.5242 6.70278 14.7678 6.66019 15.0307C6.65037 15.0914 6.63925 15.1522 6.62812 15.213C6.59522 15.3929 6.56225 15.5731 6.5625 15.7531C6.56276 15.9512 6.59575 16.1494 6.62865 16.347C6.6387 16.4074 6.64873 16.4677 6.65783 16.5279C6.694 16.7658 6.79101 16.9844 6.89377 17.1993C7.01648 17.4558 7.17366 17.692 7.36871 17.8984C7.50899 18.0467 7.65739 18.1903 7.81761 18.3167C8.07857 18.5228 8.36827 18.6854 8.68771 18.781C8.91216 18.8482 9.14202 18.908 9.37391 18.9388C9.58147 18.9662 9.79578 18.9621 10.0057 18.9489C10.195 18.9371 10.3873 18.9117 10.5699 18.8611C10.7734 18.8046 10.9704 18.7208 11.1641 18.635C11.417 18.5228 11.6485 18.3711 11.847 18.1795C12.0735 17.9611 12.2968 17.7393 12.5201 17.5174C12.7214 17.3174 12.9227 17.1174 13.1264 16.9199C13.1999 16.8487 13.2707 16.7745 13.3415 16.7002C13.5416 16.4905 13.7419 16.2806 14.0022 16.1377C14.1959 16.0312 14.3991 15.9501 14.6181 15.9271C14.8869 15.8988 15.159 15.8825 15.4183 15.9829L15.4356 15.9896C15.5987 16.0526 15.7642 16.1166 15.9118 16.2079C16.1984 16.3853 16.4097 16.6344 16.5625 16.9395C16.6839 17.1817 16.7433 17.4348 16.7572 17.6994C16.7677 17.9045 16.7359 18.1059 16.6724 18.3042C16.5895 18.5624 16.4702 18.8006 16.2829 18.9932C15.9958 19.2882 15.7033 19.5781 15.4108 19.868C15.2829 19.9948 15.1549 20.1216 15.0275 20.2488C14.9776 20.2986 14.927 20.3478 14.8764 20.3971C14.754 20.5162 14.6315 20.6353 14.5184 20.7627C14.2662 21.0472 14.0634 21.3642 13.9221 21.7206C13.8167 21.9866 13.7416 22.2599 13.7126 22.5414C13.67 22.954 13.6929 23.3638 13.8113 23.7673C13.8826 24.0102 13.9711 24.2444 14.0939 24.464C14.3102 24.8509 14.5985 25.1776 14.9508 25.4466C15.2269 25.6571 15.5268 25.8257 15.8618 25.9223C16.0389 25.9734 16.2191 26.021 16.4009 26.047C16.6027 26.0757 16.8093 26.0977 17.0117 26.0862C17.2399 26.0734 17.4671 26.0291 17.6915 25.9821C18.0302 25.9112 18.3385 25.7618 18.6265 25.5736C18.8767 25.4101 19.0984 25.2124 19.2945 24.9857C19.5832 24.6525 19.7914 24.2734 19.9219 23.8551C20.0189 23.5436 20.0635 23.2216 20.0625 22.8925C20.06 22.0336 20.0604 21.1747 20.0608 20.3158ZM9.72635 26.0936C11.4784 26.1102 12.938 24.7096 12.9268 22.9093C12.9502 21.178 11.5375 19.7193 9.74494 19.7267C7.98954 19.7341 6.57758 21.0918 6.56305 22.8846C6.54851 24.6741 7.94526 26.0767 9.72635 26.0936Z" fill="white" fill-opacity="0.6"/>
<mask id="mask1_11_2" style="mask-type:luminance" maskUnits="userSpaceOnUse" x="7" y="-7" width="30" height="29">
<path d="M36.4588 1.78146L16.2812 -6.5L7.99973 13.6776L28.1774 21.9591L36.4588 1.78146Z" fill="white"/>
</mask>
<g mask="url(#mask1_11_2)">
<path d="M14.3033 4.36508C14.3033 4.36508 16.9787 0.7716 21.7795 0.776494C21.7795 0.776494 24.3572 -0.894561 28.8138 2.60822C28.8138 2.60822 29.8996 4.21827 29.9189 4.88061C29.9189 4.88061 31.976 6.16195 30.9282 8.71511C30.9282 8.71511 31.0955 9.54805 30.3068 11.1161L29.2307 14.713L27.0561 15.3122L27.2183 14.6513C27.2183 14.6513 26.6143 11.6015 26.8275 10.8164C26.8275 10.8164 26.5322 10.2951 26.1872 11.1358L26.0864 12.6222L14.3585 6.71213L14.3033 4.36508Z" fill="#E14B4B"/>
<path d="M28.6872 8.12226C28.9777 6.4035 29.089 4.65464 29.0098 2.91016C29.2342 3.26832 29.5983 3.88056 29.7887 4.37363C29.5309 5.65184 29.16 6.90574 28.6872 8.12226Z" fill="#D03F3E"/>
<path d="M25.5153 2.79462C25.6566 2.84374 25.7534 2.94906 25.8213 3.08159C25.722 2.9841 25.6168 2.88858 25.5153 2.79462Z" fill="#D03F3E"/>
<path d="M26.8241 10.8109C26.7918 10.7622 26.5164 10.3485 26.1922 11.1278C26.1157 10.8348 26.0781 10.5223 26.011 10.228C25.8263 9.40124 25.3707 8.66005 24.9258 7.93579C24.0745 6.55168 23.1928 5.13741 21.9251 4.11965C22.6505 4.37392 23.2375 4.91182 23.7929 5.44045C24.8923 6.4857 26.0001 7.62572 26.411 9.08261C26.7109 8.34122 26.591 7.50567 26.4654 6.71641C26.3012 5.67992 26.1373 4.6428 25.9732 3.6063C25.9456 3.42919 25.9038 3.23295 25.8216 3.0813C26.2948 3.52461 26.7295 4.0081 26.9795 4.60008C27.3117 5.38714 27.2759 6.27156 27.2142 7.12396C27.1249 8.35417 26.9944 9.58807 26.8241 10.8109Z" fill="#D03F3E"/>
<path d="M10.4789 7.67363C10.6785 7.18735 10.4449 7.74372 10.5241 7.53819C10.282 8.07778 11.53 5.06948 12.1259 4.94264C12.5964 4.7444 13.3178 3.85397 13.4249 4.35263C13.7305 4.25623 13.7745 4.60151 14.04 4.31914C14.1955 4.30484 14.4166 4.04259 14.388 4.40671C14.522 4.37474 14.5125 4.71206 14.7038 4.68592C14.7636 4.98019 15.0196 4.92019 15.2219 5.2265C15.1321 5.44536 15.4339 5.0062 15.4954 5.30339C15.5708 5.56868 15.8467 5.4962 16.1142 5.45491C16.4208 5.31839 16.6911 5.28118 16.775 5.56326C16.8418 5.76681 17.0054 5.87817 17.2934 5.73844C17.5653 5.6363 17.7537 5.78954 17.8673 6.07644C17.9526 6.43424 18.1264 6.52986 18.3327 6.40599C18.3855 6.65614 18.5746 6.43082 18.5241 6.55381C18.5205 6.56264 18.4974 6.76247 18.6677 6.60612C18.779 6.59357 18.8468 6.79827 19.0517 6.75339C19.1167 7.04909 19.4166 6.85528 19.6058 6.98156C19.8986 6.85707 20.1925 6.78019 20.2603 7.27596C20.5638 7.19715 20.7796 7.35202 20.9443 7.62229C21.211 7.64405 21.4203 7.79481 21.5883 8.00674C21.8263 8.04622 21.8833 8.48746 22.1215 8.41351C22.3714 8.31269 22.5869 8.22206 22.474 8.8294C22.5216 8.71334 22.4631 9.01212 22.6123 8.92888C22.6853 9.03108 22.8765 8.96733 22.9826 9.20099C23.1608 9.25867 23.3267 9.43437 23.518 9.60574C23.8397 9.45771 23.9189 9.956 24.1507 10.1042C24.3485 10.335 24.4799 10.7493 24.8138 10.6557C25.1686 10.5131 25.2664 10.9822 25.4404 11.2209C25.4901 11.7623 25.8481 11.5061 25.9633 11.7605C26.1132 11.9304 26.2988 11.9343 26.3149 12.2343C26.3126 12.2399 26.2803 12.6077 26.2915 12.6307C26.3036 12.6946 26.1822 13.0929 26.2282 13.0793C26.2133 13.5161 25.5974 15.2502 25.0879 15.8237C25.0886 15.8218 25.1083 15.695 24.963 15.8874C24.8901 15.9033 24.8561 15.7419 24.6199 15.9906C24.4391 16.1043 24.3321 15.9521 24.1085 15.9996C23.8129 16.2224 23.6603 16.0087 23.478 15.7813C23.2962 15.5527 23.071 15.3401 22.778 15.2029C22.9005 14.9046 22.7981 15.1036 22.7335 15.164C22.6353 15.3065 22.7097 14.9796 22.6017 15.0525C22.6912 14.6441 22.4349 15.0334 22.3862 14.8756C22.3311 14.7314 22.1743 14.7938 22.0887 14.6415C21.8338 14.9016 21.8728 14.4062 21.713 14.3575C21.6512 14.0698 21.5564 13.8231 21.2612 14.0306C21.0688 13.9878 21.0346 13.5234 20.7366 13.6694C20.617 13.3808 20.2323 13.7041 20.1415 13.2807C19.8776 13.2792 19.7527 12.9082 19.4792 12.8725C19.2708 12.6764 18.9538 12.718 18.7518 12.4524C18.4779 12.3621 18.1819 12.3003 17.9629 12.0276C17.6935 11.878 17.4822 11.5613 17.1144 11.6064C16.8661 11.3601 16.5229 11.3238 16.2098 11.1961C15.9422 10.9573 15.5935 10.8967 15.2514 10.8035C14.7419 10.4271 14.1988 10.3302 13.7438 10.1943C13.2865 10.0641 12.9475 9.82176 12.6267 9.6857C12.3363 9.47584 12.0804 9.3325 11.8415 9.27352C11.5063 9.44916 11.483 8.99074 11.3296 8.95139C11.2016 8.85022 11.1916 8.56235 11.0333 8.71261C10.9541 8.6705 10.9919 8.41851 10.8938 8.54993C10.874 8.49025 10.8221 8.56107 10.8529 8.45727C10.7898 8.58243 10.7156 8.7613 10.8526 8.42765C10.69 8.82374 10.7043 8.4729 10.6578 8.22168C10.5176 8.1951 10.2859 8.34318 10.4789 7.67363Z" fill="#DAE5EF"/>
<path d="M30.387 15.8566C30.5822 16.9648 29.6129 18.136 28.5047 18.3312C27.3965 18.5264 26.3402 17.7855 26.145 16.6773C25.9498 15.5691 26.6907 14.5128 27.7989 14.3176C28.9064 14.1221 30.1921 14.7478 30.387 15.8566Z" fill="#DAE5EF"/>
<path d="M29.4766 17.8783C29.1909 18.1074 28.854 18.2639 28.504 18.3266C27.3969 18.5281 26.3388 17.7843 26.1462 16.6735C25.951 15.569 26.6885 14.5083 27.7993 14.3157C27.8538 14.3086 27.902 14.2989 27.9539 14.2981C27.4156 14.7478 27.1268 15.4694 27.2582 16.2087C27.4411 17.2713 28.4246 17.9993 29.4766 17.8783Z" fill="#CBD6E0"/>
<path d="M28.0253 14.3717C28.0431 14.3497 28.0499 14.3224 28.0517 14.2946C28.0481 14.2946 28.0448 14.2954 28.0412 14.2954L28.0253 14.3717Z" fill="#CBD6E0"/>
</g>
</g>
<path d="M45.3068 23H40.598V8.45455H45.456C46.8812 8.45455 48.1051 8.74574 49.1278 9.32812C50.1506 9.90578 50.9342 10.7367 51.4787 11.821C52.0279 12.9006 52.3026 14.1955 52.3026 15.706C52.3026 17.2211 52.0256 18.5232 51.4716 19.6122C50.9223 20.7012 50.1269 21.5393 49.0852 22.1264C48.0436 22.7088 46.7841 23 45.3068 23ZM42.7926 21.0824H45.1861C46.294 21.0824 47.215 20.8741 47.9489 20.4574C48.6828 20.036 49.232 19.4276 49.5966 18.6321C49.9612 17.8319 50.1435 16.8565 50.1435 15.706C50.1435 14.5649 49.9612 13.5966 49.5966 12.8011C49.2367 12.0057 48.6993 11.402 47.9844 10.9901C47.2694 10.5781 46.3816 10.3722 45.321 10.3722H42.7926V21.0824ZM59.5629 23.2202C58.488 23.2202 57.5624 22.9905 56.7859 22.5312C56.0141 22.0672 55.4175 21.4162 54.9961 20.5781C54.5794 19.7353 54.3711 18.7481 54.3711 17.6165C54.3711 16.4991 54.5794 15.5142 54.9961 14.6619C55.4175 13.8097 56.0046 13.1444 56.7575 12.6662C57.515 12.188 58.4004 11.9489 59.4137 11.9489C60.0292 11.9489 60.6258 12.0507 61.2035 12.2543C61.7811 12.4579 62.2996 12.7775 62.7589 13.2131C63.2182 13.6487 63.5804 14.2145 63.8455 14.9105C64.1107 15.6018 64.2433 16.4422 64.2433 17.4318V18.1847H55.5714V16.5938H62.1623C62.1623 16.035 62.0487 15.5402 61.8214 15.1094C61.5941 14.6738 61.2745 14.3305 60.8626 14.0795C60.4554 13.8286 59.9772 13.7031 59.4279 13.7031C58.8313 13.7031 58.3105 13.8499 57.8654 14.1435C57.4251 14.4323 57.0842 14.8111 56.8427 15.2798C56.6059 15.7438 56.4876 16.2481 56.4876 16.7926V18.0355C56.4876 18.7647 56.6154 19.3849 56.8711 19.8963C57.1315 20.4077 57.4937 20.7983 57.9577 21.0682C58.4218 21.3333 58.9639 21.4659 59.5842 21.4659C59.9866 21.4659 60.3536 21.4091 60.685 21.2955C61.0165 21.1771 61.3029 21.0019 61.5444 20.7699C61.7859 20.5379 61.9705 20.2514 62.0984 19.9105L64.1083 20.2727C63.9473 20.8646 63.6585 21.383 63.2418 21.8281C62.8299 22.2685 62.3114 22.6117 61.6864 22.858C61.0662 23.0994 60.3583 23.2202 59.5629 23.2202ZM71.1733 27.3182C70.3068 27.3182 69.5611 27.2045 68.9361 26.9773C68.3158 26.75 67.8092 26.4493 67.4162 26.0753C67.0232 25.7012 66.7296 25.2917 66.5355 24.8466L68.3608 24.0938C68.4886 24.3021 68.6591 24.5223 68.8722 24.7543C69.09 24.991 69.3835 25.1922 69.7528 25.358C70.1269 25.5237 70.6075 25.6065 71.1946 25.6065C71.9995 25.6065 72.6648 25.41 73.1903 25.017C73.7159 24.6288 73.9787 24.0085 73.9787 23.1562V21.0114H73.8438C73.7159 21.2434 73.5313 21.5014 73.2898 21.7855C73.053 22.0696 72.7263 22.3158 72.3097 22.5241C71.893 22.7325 71.3509 22.8366 70.6832 22.8366C69.8215 22.8366 69.045 22.6354 68.3537 22.233C67.6671 21.8258 67.1226 21.2268 66.7202 20.4361C66.3224 19.6406 66.1236 18.6629 66.1236 17.5028C66.1236 16.3428 66.3201 15.3485 66.7131 14.5199C67.1108 13.6913 67.6553 13.0568 68.3466 12.6165C69.0379 12.1714 69.8215 11.9489 70.6974 11.9489C71.3745 11.9489 71.9214 12.0625 72.3381 12.2898C72.7547 12.5123 73.0791 12.7727 73.3111 13.071C73.5478 13.3693 73.7301 13.6321 73.858 13.8594H74.0142V12.0909H76.0952V23.2415C76.0952 24.179 75.8774 24.9484 75.4418 25.5497C75.0062 26.151 74.4167 26.5961 73.6733 26.8849C72.9347 27.1738 72.1013 27.3182 71.1733 27.3182ZM71.152 21.0753C71.7628 21.0753 72.2789 20.9332 72.7003 20.6491C73.1264 20.3603 73.4484 19.9484 73.6662 19.4134C73.8887 18.8736 74 18.2273 74 17.4744C74 16.7405 73.8911 16.0942 73.6733 15.5355C73.4555 14.9768 73.1359 14.5412 72.7145 14.2287C72.2931 13.9115 71.7723 13.7528 71.152 13.7528C70.5128 13.7528 69.9801 13.9186 69.554 14.25C69.1278 14.5767 68.8059 15.0218 68.5881 15.5852C68.375 16.1487 68.2685 16.7784 68.2685 17.4744C68.2685 18.1894 68.3774 18.8168 68.5952 19.3565C68.813 19.8963 69.1349 20.3177 69.5611 20.6207C69.992 20.9238 70.5223 21.0753 71.152 21.0753ZM83.6449 23.2202C82.5701 23.2202 81.6444 22.9905 80.8679 22.5312C80.0961 22.0672 79.4995 21.4162 79.0781 20.5781C78.6615 19.7353 78.4531 18.7481 78.4531 17.6165C78.4531 16.4991 78.6615 15.5142 79.0781 14.6619C79.4995 13.8097 80.0866 13.1444 80.8395 12.6662C81.5971 12.188 82.4825 11.9489 83.4957 11.9489C84.1113 11.9489 84.7079 12.0507 85.2855 12.2543C85.8632 12.4579 86.3816 12.7775 86.8409 13.2131C87.3002 13.6487 87.6624 14.2145 87.9276 14.9105C88.1927 15.6018 88.3253 16.4422 88.3253 17.4318V18.1847H79.6534V16.5938H86.2443C86.2443 16.035 86.1307 15.5402 85.9034 15.1094C85.6761 14.6738 85.3565 14.3305 84.9446 14.0795C84.5374 13.8286 84.0592 13.7031 83.5099 13.7031C82.9134 13.7031 82.3925 13.8499 81.9474 14.1435C81.5071 14.4323 81.1662 14.8111 80.9247 15.2798C80.688 15.7438 80.5696 16.2481 80.5696 16.7926V18.0355C80.5696 18.7647 80.6974 19.3849 80.9531 19.8963C81.2135 20.4077 81.5758 20.7983 82.0398 21.0682C82.5038 21.3333 83.0459 21.4659 83.6662 21.4659C84.0687 21.4659 84.4356 21.4091 84.767 21.2955C85.0985 21.1771 85.3849 21.0019 85.6264 20.7699C85.8679 20.5379 86.0526 20.2514 86.1804 19.9105L88.1903 20.2727C88.0294 20.8646 87.7405 21.383 87.3239 21.8281C86.9119 22.2685 86.3935 22.6117 85.7685 22.858C85.1482 23.0994 84.4403 23.2202 83.6449 23.2202ZM92.805 16.5227V23H90.6815V12.0909H92.7198V13.8665H92.8548C93.1057 13.2888 93.4987 12.8248 94.0337 12.4744C94.5735 12.1241 95.253 11.9489 96.0721 11.9489C96.8155 11.9489 97.4665 12.1051 98.0252 12.4176C98.5839 12.7254 99.0172 13.1847 99.3249 13.7955C99.6327 14.4062 99.7866 15.1615 99.7866 16.0611V23H97.663V16.3168C97.663 15.526 97.457 14.9081 97.0451 14.4631C96.6332 14.0133 96.0674 13.7884 95.3477 13.7884C94.8552 13.7884 94.4173 13.8949 94.0337 14.108C93.6549 14.321 93.3543 14.6335 93.1317 15.0455C92.9139 15.4527 92.805 15.9451 92.805 16.5227ZM109.327 23H106.997L112.232 8.45455H114.767L120.001 23H117.672L113.56 11.0966H113.446L109.327 23ZM109.717 17.304H117.274V19.1506H109.717V17.304ZM124.297 8.45455V23H122.102V8.45455H124.297Z" fill="white"/>
<defs>
<linearGradient id="paint0_linear_11_2" x1="19.2187" y1="9.64062" x2="8.03906" y2="30.5234" gradientUnits="userSpaceOnUse">
<stop stop-color="#7CCC16"/>
<stop offset="0.5" stop-color="#DF9E0D"/>
<stop offset="1" stop-color="#C2154A"/>
</linearGradient>
</defs>
</svg>
