<svg width="215" height="141" viewBox="0 0 215 141" fill="none" xmlns="http://www.w3.org/2000/svg">
<path opacity="0.2" d="M35.5 33.6487C41.5751 33.6487 46.5 28.7239 46.5 22.6487C46.5 16.5736 41.5751 11.6487 35.5 11.6487C29.4249 11.6487 24.5 16.5736 24.5 22.6487C24.5 28.7239 29.4249 33.6487 35.5 33.6487Z" fill="#3977FB"/>
<mask id="mask0_3382_45282" style="mask-type:luminance" maskUnits="userSpaceOnUse" x="24" y="11" width="23" height="23">
<path d="M35.5 33.6487C41.5751 33.6487 46.5 28.7239 46.5 22.6487C46.5 16.5736 41.5751 11.6487 35.5 11.6487C29.4249 11.6487 24.5 16.5736 24.5 22.6487C24.5 28.7239 29.4249 33.6487 35.5 33.6487Z" fill="white"/>
</mask>
<g mask="url(#mask0_3382_45282)">
<path fill-rule="evenodd" clip-rule="evenodd" d="M34.7314 23.8522H38.0249C39.2486 23.8522 40.251 22.8995 40.251 21.7086C40.251 20.5177 39.2616 19.5775 38.038 19.5775H36.9835L34.7314 17.6972H38.0249C40.3291 17.6846 42.2036 19.4772 42.2036 21.696C42.2167 23.3382 41.1752 24.8174 39.5871 25.4317L42.1906 27.6003H39.2226L34.7314 23.8522Z" fill="url(#paint0_linear_3382_45282)"/>
<path fill-rule="evenodd" clip-rule="evenodd" d="M36.3457 21.4579H33.0522C31.8285 21.4579 30.8262 22.4106 30.8262 23.6014C30.8262 24.7923 31.8155 25.745 33.0522 25.745H34.1066L36.3457 27.6254H33.0522C30.748 27.6254 28.8735 25.8328 28.8605 23.6265C28.8475 21.9718 29.8889 20.4926 31.477 19.8784L28.8735 17.6972H31.8546L36.3457 21.4579Z" fill="#4971FA"/>
<path fill-rule="evenodd" clip-rule="evenodd" d="M36.3457 21.4579H33.0522C31.8285 21.4579 30.8262 22.4106 30.8262 23.6014C30.8262 24.7923 31.8155 25.745 33.0522 25.745H34.1066L36.3457 27.6254H33.0522C30.748 27.6254 28.8735 25.8328 28.8605 23.6265C28.8475 21.9718 29.8889 20.4926 31.477 19.8784L28.8735 17.6972H31.8546L36.3457 21.4579Z" fill="url(#paint1_linear_3382_45282)"/>
</g>
<path d="M55.5313 21.1487H52.6953V13.1487H55.5547C56.3594 13.1487 57.0521 13.3089 57.6328 13.6292C58.2135 13.9469 58.6602 14.404 58.9727 15.0003C59.2878 15.5967 59.4453 16.3102 59.4453 17.1409C59.4453 17.9743 59.2878 18.6904 58.9727 19.2894C58.6602 19.8883 58.2109 20.348 57.625 20.6683C57.0417 20.9886 56.3438 21.1487 55.5313 21.1487ZM54.3867 19.6995H55.4609C55.9609 19.6995 56.3815 19.611 56.7227 19.4339C57.0664 19.2542 57.3242 18.9769 57.4961 18.6019C57.6706 18.2243 57.7578 17.7373 57.7578 17.1409C57.7578 16.5498 57.6706 16.0667 57.4961 15.6917C57.3242 15.3167 57.0677 15.0407 56.7266 14.8636C56.3854 14.6865 55.9648 14.598 55.4648 14.598H54.3867V19.6995ZM67.7568 15.9495H66.0459C66.0146 15.7282 65.9508 15.5316 65.8545 15.3597C65.7581 15.1852 65.6344 15.0368 65.4834 14.9144C65.3324 14.792 65.1579 14.6982 64.96 14.6331C64.7646 14.568 64.5524 14.5355 64.3232 14.5355C63.9092 14.5355 63.5485 14.6383 63.2412 14.8441C62.9339 15.0472 62.6956 15.3441 62.5264 15.7347C62.3571 16.1227 62.2725 16.5941 62.2725 17.1487C62.2725 17.7191 62.3571 18.1982 62.5264 18.5862C62.6982 18.9743 62.9378 19.2672 63.2451 19.4651C63.5524 19.6631 63.9079 19.762 64.3115 19.762C64.5381 19.762 64.7477 19.7321 64.9404 19.6722C65.1357 19.6123 65.3089 19.525 65.46 19.4105C65.611 19.2933 65.736 19.1513 65.835 18.9847C65.9365 18.818 66.0068 18.6279 66.0459 18.4144L67.7568 18.4222C67.7126 18.7894 67.6019 19.1435 67.4248 19.4847C67.2503 19.8232 67.0146 20.1266 66.7178 20.3948C66.4235 20.6605 66.0719 20.8714 65.6631 21.0276C65.2568 21.1813 64.7972 21.2581 64.2842 21.2581C63.5706 21.2581 62.9326 21.0967 62.3701 20.7737C61.8102 20.4508 61.3675 19.9834 61.042 19.3714C60.7191 18.7594 60.5576 18.0185 60.5576 17.1487C60.5576 16.2763 60.7217 15.5342 61.0498 14.9222C61.3779 14.3102 61.8232 13.8441 62.3857 13.5237C62.9482 13.2008 63.5811 13.0394 64.2842 13.0394C64.7477 13.0394 65.1774 13.1045 65.5732 13.2347C65.9717 13.3649 66.3245 13.555 66.6318 13.805C66.9391 14.0524 67.1891 14.3558 67.3818 14.7151C67.5771 15.0745 67.7021 15.486 67.7568 15.9495ZM68.9697 21.1487V13.1487H72.126C72.7301 13.1487 73.2458 13.2568 73.6729 13.473C74.1025 13.6865 74.4294 13.9899 74.6533 14.3831C74.8799 14.7737 74.9932 15.2334 74.9932 15.762C74.9932 16.2933 74.8786 16.7503 74.6494 17.1331C74.4202 17.5133 74.0882 17.805 73.6533 18.0081C73.221 18.2112 72.6976 18.3128 72.083 18.3128H69.9697V16.9534H71.8096C72.1325 16.9534 72.4007 16.9092 72.6143 16.8206C72.8278 16.7321 72.9867 16.5993 73.0908 16.4222C73.1976 16.2451 73.251 16.025 73.251 15.762C73.251 15.4964 73.1976 15.2724 73.0908 15.0901C72.9867 14.9079 72.8265 14.7698 72.6104 14.6761C72.3968 14.5797 72.1273 14.5316 71.8018 14.5316H70.6611V21.1487H68.9697ZM73.29 17.5081L75.2783 21.1487H73.4111L71.4658 17.5081H73.29Z" fill="white"/>
<path d="M55.0352 33.1487H52.769V26.1487H55.1069C55.7928 26.1487 56.3818 26.2889 56.874 26.5692C57.3662 26.8471 57.7433 27.247 58.0054 27.7689C58.2697 28.2884 58.4019 28.9116 58.4019 29.6385C58.4019 30.3677 58.2686 30.9943 58.002 31.5184C57.7376 32.0425 57.3548 32.4458 56.8535 32.7283C56.3522 33.0086 55.7461 33.1487 55.0352 33.1487ZM53.8252 32.2259H54.9771C55.5103 32.2259 55.9535 32.1256 56.3066 31.9251C56.6598 31.7223 56.9242 31.4295 57.0996 31.0467C57.2751 30.6616 57.3628 30.1922 57.3628 29.6385C57.3628 29.0893 57.2751 28.6234 57.0996 28.2405C56.9264 27.8577 56.6678 27.5672 56.3237 27.369C55.9797 27.1707 55.5524 27.0716 55.042 27.0716H53.8252V32.2259ZM61.8959 33.2547C61.3786 33.2547 60.9331 33.1442 60.5594 32.9232C60.188 32.6998 59.9009 32.3865 59.6981 31.9832C59.4976 31.5776 59.3973 31.1025 59.3973 30.5579C59.3973 30.0202 59.4976 29.5462 59.6981 29.136C59.9009 28.7259 60.1835 28.4057 60.5458 28.1756C60.9104 27.9455 61.3365 27.8304 61.8241 27.8304C62.1203 27.8304 62.4074 27.8794 62.6854 27.9774C62.9634 28.0753 63.2129 28.2291 63.434 28.4388C63.655 28.6484 63.8293 28.9207 63.9569 29.2557C64.0845 29.5884 64.1483 29.9928 64.1483 30.4691V30.8314H59.975V30.0657H63.1469C63.1469 29.7969 63.0922 29.5587 62.9828 29.3514C62.8734 29.1417 62.7196 28.9765 62.5214 28.8558C62.3254 28.735 62.0953 28.6746 61.8309 28.6746C61.5438 28.6746 61.2932 28.7453 61.079 28.8865C60.8671 29.0255 60.703 29.2078 60.5868 29.4334C60.4729 29.6567 60.4159 29.8994 60.4159 30.1614V30.7596C60.4159 31.1105 60.4774 31.409 60.6005 31.6551C60.7258 31.9012 60.9001 32.0892 61.1234 32.2191C61.3467 32.3467 61.6076 32.4105 61.9061 32.4105C62.0998 32.4105 62.2764 32.3831 62.4359 32.3284C62.5954 32.2715 62.7333 32.1872 62.8495 32.0755C62.9657 31.9638 63.0546 31.826 63.1161 31.6619L64.0834 31.8362C64.0059 32.1211 63.8669 32.3706 63.6664 32.5848C63.4681 32.7967 63.2186 32.9619 62.9178 33.0804C62.6193 33.1966 62.2787 33.2547 61.8959 33.2547ZM67.4937 33.2547C66.9855 33.2547 66.548 33.1396 66.1812 32.9095C65.8166 32.6771 65.5363 32.3569 65.3403 31.949C65.1444 31.5412 65.0464 31.074 65.0464 30.5477C65.0464 30.0145 65.1466 29.5439 65.3472 29.136C65.5477 28.7259 65.8302 28.4057 66.1948 28.1756C66.5594 27.9455 66.9889 27.8304 67.4834 27.8304C67.8822 27.8304 68.2376 27.9044 68.5498 28.0526C68.862 28.1984 69.1138 28.4035 69.3052 28.6678C69.4989 28.9321 69.6139 29.2409 69.6504 29.5941H68.6558C68.6011 29.348 68.4757 29.136 68.2798 28.9583C68.0861 28.7806 67.8263 28.6917 67.5005 28.6917C67.2157 28.6917 66.9661 28.7669 66.752 28.9173C66.54 29.0654 66.3748 29.2773 66.2563 29.553C66.1379 29.8265 66.0786 30.15 66.0786 30.5237C66.0786 30.9066 66.1367 31.237 66.2529 31.515C66.3691 31.7929 66.5332 32.0083 66.7451 32.1609C66.9593 32.3136 67.2111 32.39 67.5005 32.39C67.6942 32.39 67.8696 32.3546 68.0269 32.284C68.1864 32.2111 68.3197 32.1074 68.4268 31.973C68.5361 31.8385 68.6125 31.6767 68.6558 31.4876H69.6504C69.6139 31.8271 69.5034 32.1302 69.3188 32.3968C69.1343 32.6634 68.887 32.873 68.5771 33.0257C68.2695 33.1784 67.9084 33.2547 67.4937 33.2547ZM70.7433 33.1487V27.8987H71.7311V28.7327H71.7858C71.8815 28.4502 72.0501 28.228 72.2916 28.0662C72.5354 27.9022 72.8112 27.8201 73.1188 27.8201C73.1826 27.8201 73.2578 27.8224 73.3444 27.827C73.4332 27.8315 73.5027 27.8372 73.5529 27.8441V28.8216C73.5118 28.8102 73.4389 28.7977 73.3341 28.784C73.2293 28.768 73.1245 28.7601 73.0197 28.7601C72.7781 28.7601 72.5628 28.8113 72.3737 28.9139C72.1868 29.0141 72.0387 29.1543 71.9293 29.3343C71.8199 29.512 71.7653 29.7148 71.7653 29.9427V33.1487H70.7433ZM76.512 33.2547C75.9947 33.2547 75.5492 33.1442 75.1755 32.9232C74.8041 32.6998 74.517 32.3865 74.3142 31.9832C74.1137 31.5776 74.0134 31.1025 74.0134 30.5579C74.0134 30.0202 74.1137 29.5462 74.3142 29.136C74.517 28.7259 74.7996 28.4057 75.1619 28.1756C75.5264 27.9455 75.9526 27.8304 76.4402 27.8304C76.7364 27.8304 77.0235 27.8794 77.3015 27.9774C77.5795 28.0753 77.829 28.2291 78.05 28.4388C78.2711 28.6484 78.4454 28.9207 78.573 29.2557C78.7006 29.5884 78.7644 29.9928 78.7644 30.4691V30.8314H74.5911V30.0657H77.7629C77.7629 29.7969 77.7083 29.5587 77.5989 29.3514C77.4895 29.1417 77.3357 28.9765 77.1375 28.8558C76.9415 28.735 76.7113 28.6746 76.447 28.6746C76.1599 28.6746 75.9093 28.7453 75.6951 28.8865C75.4832 29.0255 75.3191 29.2078 75.2029 29.4334C75.0889 29.6567 75.032 29.8994 75.032 30.1614V30.7596C75.032 31.1105 75.0935 31.409 75.2166 31.6551C75.3419 31.9012 75.5162 32.0892 75.7395 32.2191C75.9628 32.3467 76.2237 32.4105 76.5222 32.4105C76.7159 32.4105 76.8925 32.3831 77.052 32.3284C77.2115 32.2715 77.3494 32.1872 77.4656 32.0755C77.5818 31.9638 77.6707 31.826 77.7322 31.6619L78.6995 31.8362C78.622 32.1211 78.483 32.3706 78.2825 32.5848C78.0842 32.7967 77.8347 32.9619 77.5339 33.0804C77.2354 33.1966 76.8948 33.2547 76.512 33.2547ZM81.8636 33.2513C81.4398 33.2513 81.0616 33.143 80.7289 32.9266C80.3985 32.7078 80.1387 32.3968 79.9496 31.9935C79.7627 31.5879 79.6693 31.1014 79.6693 30.534C79.6693 29.9666 79.7639 29.4813 79.953 29.0779C80.1444 28.6746 80.4065 28.3659 80.7391 28.1517C81.0718 27.9375 81.4489 27.8304 81.8705 27.8304C82.1963 27.8304 82.4584 27.8851 82.6566 27.9944C82.8571 28.1015 83.0121 28.2269 83.1215 28.3704C83.2331 28.514 83.3197 28.6404 83.3812 28.7498H83.4427V26.1487H84.4647V33.1487H83.4667V32.3318H83.3812C83.3197 32.4435 83.2308 32.5711 83.1146 32.7147C83.0007 32.8582 82.8435 32.9835 82.6429 33.0906C82.4424 33.1977 82.1827 33.2513 81.8636 33.2513ZM82.0892 32.3797C82.3832 32.3797 82.6316 32.3022 82.8344 32.1473C83.0394 31.9901 83.1944 31.7724 83.2992 31.4944C83.4063 31.2165 83.4598 30.8929 83.4598 30.5237C83.4598 30.1592 83.4074 29.8401 83.3026 29.5667C83.1978 29.2933 83.044 29.0802 82.8412 28.9276C82.6384 28.7749 82.3877 28.6985 82.0892 28.6985C81.7816 28.6985 81.5253 28.7783 81.3202 28.9378C81.1151 29.0973 80.9602 29.3149 80.8553 29.5906C80.7528 29.8664 80.7015 30.1774 80.7015 30.5237C80.7015 30.8747 80.7539 31.1902 80.8588 31.4705C80.9636 31.7508 81.1185 31.973 81.3236 32.137C81.531 32.2988 81.7862 32.3797 82.0892 32.3797Z" fill="#64748B"/>
<path d="M144.333 19.5237V10.7737H144.894V19.5237H144.333ZM146.087 13.4876C146.05 13.164 145.9 12.9134 145.636 12.7357C145.371 12.5556 145.039 12.4656 144.638 12.4656C144.351 12.4656 144.102 12.5112 143.893 12.6024C143.683 12.6912 143.52 12.8143 143.404 12.9715C143.29 13.1264 143.233 13.303 143.233 13.5013C143.233 13.6676 143.272 13.8112 143.349 13.9319C143.429 14.0527 143.533 14.1541 143.66 14.2361C143.79 14.3159 143.929 14.3831 144.077 14.4378C144.225 14.4902 144.368 14.5335 144.504 14.5677L145.188 14.7454C145.411 14.8001 145.64 14.8742 145.875 14.9676C146.11 15.061 146.327 15.1841 146.528 15.3367C146.728 15.4894 146.89 15.6785 147.013 15.9041C147.139 16.1297 147.201 16.3997 147.201 16.7142C147.201 17.1107 147.099 17.4627 146.894 17.7703C146.691 18.0779 146.396 18.3206 146.008 18.4984C145.623 18.6761 145.157 18.765 144.61 18.765C144.086 18.765 143.633 18.6818 143.25 18.5154C142.867 18.3491 142.568 18.1133 142.351 17.8079C142.135 17.5003 142.015 17.1357 141.992 16.7142H143.052C143.072 16.9671 143.154 17.1779 143.298 17.3465C143.444 17.5128 143.629 17.637 143.855 17.7191C144.083 17.7988 144.332 17.8387 144.604 17.8387C144.902 17.8387 145.167 17.792 145.4 17.6985C145.635 17.6028 145.819 17.4707 145.954 17.3021C146.088 17.1312 146.155 16.9318 146.155 16.7039C146.155 16.4966 146.096 16.3268 145.978 16.1946C145.861 16.0625 145.703 15.9531 145.502 15.8665C145.304 15.7799 145.08 15.7036 144.829 15.6375L144.002 15.4119C143.441 15.2593 142.997 15.0348 142.669 14.7386C142.343 14.4424 142.18 14.0504 142.18 13.5628C142.18 13.1595 142.29 12.8074 142.508 12.5067C142.727 12.2059 143.023 11.9723 143.397 11.806C143.771 11.6373 144.192 11.553 144.662 11.553C145.136 11.553 145.554 11.6362 145.916 11.8026C146.281 11.9689 146.568 12.1979 146.777 12.4896C146.987 12.779 147.096 13.1116 147.105 13.4876H146.087ZM148.368 18.6487V17.8831L150.736 15.429C150.989 15.1624 151.198 14.9289 151.362 14.7283C151.528 14.5255 151.652 14.333 151.734 14.1507C151.816 13.9684 151.857 13.7747 151.857 13.5696C151.857 13.3372 151.803 13.1367 151.693 12.9681C151.584 12.7972 151.435 12.6662 151.245 12.575C151.056 12.4816 150.843 12.4349 150.606 12.4349C150.356 12.4349 150.137 12.4861 149.95 12.5887C149.763 12.6912 149.62 12.8359 149.519 13.0228C149.419 13.2096 149.369 13.4284 149.369 13.679H148.361C148.361 13.2529 148.459 12.8804 148.655 12.5613C148.851 12.2423 149.12 11.9951 149.461 11.8196C149.803 11.6419 150.192 11.553 150.627 11.553C151.067 11.553 151.454 11.6408 151.789 11.8162C152.126 11.9894 152.389 12.2264 152.578 12.5272C152.768 12.8257 152.862 13.1629 152.862 13.5389C152.862 13.7986 152.813 14.0527 152.715 14.3011C152.62 14.5495 152.452 14.8263 152.213 15.1317C151.974 15.4347 151.641 15.8027 151.215 16.2357L149.824 17.6917V17.743H152.975V18.6487H148.368ZM156.926 11.6487V18.6487H155.867V12.7083H155.826L154.151 13.8021V12.7903L155.897 11.6487H156.926ZM159.759 17.6917L159.708 18.0643C159.673 18.3377 159.615 18.6225 159.533 18.9188C159.453 19.2173 159.37 19.4941 159.284 19.7493C159.199 20.0045 159.13 20.2073 159.075 20.3577H158.351C158.38 20.2165 158.421 20.025 158.474 19.7835C158.526 19.5443 158.577 19.2765 158.627 18.9803C158.678 18.6841 158.715 18.3821 158.74 18.0745L158.774 17.6917H159.759ZM161.246 18.6487L164.301 12.6058V12.5545H160.767V11.6487H165.395V12.5853L162.35 18.6487H161.246ZM166.584 18.6487V17.8831L168.952 15.429C169.205 15.1624 169.414 14.9289 169.578 14.7283C169.744 14.5255 169.868 14.333 169.95 14.1507C170.032 13.9684 170.073 13.7747 170.073 13.5696C170.073 13.3372 170.019 13.1367 169.909 12.9681C169.8 12.7972 169.651 12.6662 169.462 12.575C169.272 12.4816 169.059 12.4349 168.822 12.4349C168.572 12.4349 168.353 12.4861 168.166 12.5887C167.979 12.6912 167.836 12.8359 167.735 13.0228C167.635 13.2096 167.585 13.4284 167.585 13.679H166.577C166.577 13.2529 166.675 12.8804 166.871 12.5613C167.067 12.2423 167.336 11.9951 167.677 11.8196C168.019 11.6419 168.408 11.553 168.843 11.553C169.283 11.553 169.67 11.6408 170.005 11.8162C170.342 11.9894 170.605 12.2264 170.795 12.5272C170.984 12.8257 171.078 13.1629 171.078 13.5389C171.078 13.7986 171.029 14.0527 170.931 14.3011C170.836 14.5495 170.668 14.8263 170.429 15.1317C170.19 15.4347 169.857 15.8027 169.431 16.2357L168.04 17.6917V17.743H171.191V18.6487H166.584ZM174.852 18.7444C174.362 18.7444 173.929 18.6601 173.553 18.4915C173.179 18.3229 172.886 18.0905 172.674 17.7943C172.463 17.498 172.358 17.1608 172.36 16.7825C172.358 16.4863 172.418 16.214 172.541 15.9656C172.666 15.715 172.836 15.5065 173.05 15.3401C173.265 15.1715 173.504 15.0644 173.768 15.0189V14.9778C173.42 14.8935 173.14 14.7067 172.931 14.4173C172.721 14.1279 172.617 13.7952 172.62 13.4193C172.617 13.0615 172.712 12.7425 172.903 12.4622C173.097 12.1797 173.363 11.9575 173.7 11.7957C174.037 11.6339 174.421 11.553 174.852 11.553C175.278 11.553 175.658 11.6351 175.993 11.7991C176.331 11.9609 176.596 12.1831 176.79 12.4656C176.983 12.7459 177.081 13.0638 177.084 13.4193C177.081 13.7952 176.974 14.1279 176.762 14.4173C176.55 14.7067 176.275 14.8935 175.935 14.9778V15.0189C176.197 15.0644 176.433 15.1715 176.643 15.3401C176.855 15.5065 177.023 15.715 177.149 15.9656C177.276 16.214 177.341 16.4863 177.343 16.7825C177.341 17.1608 177.234 17.498 177.022 17.7943C176.81 18.0905 176.516 18.3229 176.14 18.4915C175.767 18.6601 175.337 18.7444 174.852 18.7444ZM174.852 17.8797C175.141 17.8797 175.392 17.8318 175.604 17.7361C175.816 17.6382 175.98 17.5026 176.096 17.3294C176.212 17.154 176.271 16.9489 176.274 16.7142C176.271 16.4704 176.207 16.255 176.082 16.0682C175.959 15.8813 175.792 15.7344 175.58 15.6273C175.368 15.5202 175.125 15.4666 174.852 15.4666C174.576 15.4666 174.331 15.5202 174.117 15.6273C173.903 15.7344 173.734 15.8813 173.611 16.0682C173.488 16.255 173.428 16.4704 173.43 16.7142C173.428 16.9489 173.483 17.154 173.597 17.3294C173.714 17.5026 173.879 17.6382 174.093 17.7361C174.307 17.8318 174.56 17.8797 174.852 17.8797ZM174.852 14.6224C175.084 14.6224 175.29 14.5757 175.47 14.4822C175.65 14.3888 175.792 14.2589 175.894 14.0926C175.999 13.9262 176.053 13.7314 176.055 13.5081C176.053 13.2894 176 13.098 175.898 12.9339C175.797 12.7698 175.657 12.6434 175.477 12.5545C175.297 12.4634 175.089 12.4178 174.852 12.4178C174.61 12.4178 174.398 12.4634 174.216 12.5545C174.036 12.6434 173.896 12.7698 173.796 12.9339C173.695 13.098 173.646 13.2894 173.649 13.5081C173.646 13.7314 173.696 13.9262 173.799 14.0926C173.901 14.2589 174.043 14.3888 174.223 14.4822C174.405 14.5757 174.615 14.6224 174.852 14.6224ZM179.048 18.7137C178.861 18.7137 178.701 18.6476 178.566 18.5154C178.432 18.381 178.365 18.2192 178.365 18.0301C178.365 17.8432 178.432 17.6837 178.566 17.5516C178.701 17.4171 178.861 17.3499 179.048 17.3499C179.235 17.3499 179.396 17.4171 179.53 17.5516C179.664 17.6837 179.732 17.8432 179.732 18.0301C179.732 18.1554 179.7 18.2705 179.636 18.3753C179.574 18.4778 179.492 18.5599 179.39 18.6214C179.287 18.6829 179.173 18.7137 179.048 18.7137ZM182.897 11.6487V18.6487H181.837V12.7083H181.796L180.121 13.8021V12.7903L181.868 11.6487H182.897ZM187.234 18.7444C186.922 18.7399 186.614 18.6829 186.311 18.5735C186.01 18.4642 185.737 18.2819 185.491 18.0267C185.245 17.7715 185.048 17.4285 184.9 16.9979C184.754 16.5672 184.681 16.0294 184.681 15.3846C184.681 14.7739 184.741 14.2316 184.862 13.7576C184.985 13.2837 185.162 12.8838 185.392 12.5579C185.622 12.2298 185.9 11.9803 186.226 11.8094C186.552 11.6385 186.917 11.553 187.323 11.553C187.74 11.553 188.11 11.6351 188.434 11.7991C188.757 11.9632 189.019 12.1899 189.22 12.4793C189.423 12.7687 189.552 13.098 189.606 13.4671H188.564C188.493 13.1754 188.353 12.9373 188.143 12.7527C187.934 12.5682 187.66 12.4759 187.323 12.4759C186.81 12.4759 186.41 12.6992 186.123 13.1458C185.838 13.5924 185.695 14.2134 185.693 15.0086H185.744C185.865 14.8104 186.013 14.6417 186.188 14.5027C186.366 14.3615 186.564 14.2532 186.783 14.178C187.004 14.1006 187.236 14.0618 187.48 14.0618C187.886 14.0618 188.253 14.1609 188.581 14.3592C188.911 14.5552 189.174 14.8263 189.37 15.1727C189.566 15.519 189.664 15.9155 189.664 16.3621C189.664 16.8087 189.563 17.2132 189.36 17.5755C189.16 17.9378 188.877 18.2249 188.512 18.4368C188.148 18.6465 187.722 18.749 187.234 18.7444ZM187.231 17.8558C187.5 17.8558 187.74 17.7897 187.952 17.6575C188.164 17.5254 188.331 17.3476 188.454 17.1243C188.577 16.901 188.639 16.6515 188.639 16.3758C188.639 16.1069 188.579 15.862 188.458 15.6409C188.339 15.4199 188.175 15.2444 187.966 15.1146C187.758 14.9847 187.521 14.9197 187.255 14.9197C187.052 14.9197 186.864 14.9585 186.691 15.0359C186.52 15.1134 186.369 15.2205 186.24 15.3572C186.11 15.494 186.007 15.6512 185.932 15.8289C185.859 16.0044 185.823 16.1901 185.823 16.386C185.823 16.6481 185.883 16.8908 186.004 17.1141C186.127 17.3374 186.294 17.5174 186.506 17.6541C186.72 17.7886 186.962 17.8558 187.231 17.8558Z" fill="#F1F5F9"/>
<path d="M155.438 28.2737H160.562C160.653 28.2741 160.741 28.3014 160.816 28.352C160.891 28.4027 160.95 28.4745 160.984 28.5584C161.019 28.6423 161.027 28.7345 161.009 28.8233C160.991 28.9122 160.947 28.9937 160.883 29.0575L158.325 31.615C158.283 31.6579 158.232 31.692 158.176 31.7153C158.12 31.7386 158.06 31.7506 158 31.7506C157.939 31.7506 157.88 31.7386 157.824 31.7153C157.768 31.692 157.717 31.6579 157.675 31.615L155.117 29.0575C155.053 28.9937 155.009 28.9122 154.991 28.8233C154.973 28.7345 154.981 28.6423 155.016 28.5584C155.05 28.4745 155.108 28.4027 155.184 28.352C155.259 28.3014 155.347 28.2741 155.438 28.2737Z" fill="#EF4444"/>
<path d="M166.686 25.6487V32.6487H165.838V26.5374H165.797L164.088 27.6722V26.8109L165.838 25.6487H166.686ZM168.887 32.7034C168.718 32.7034 168.573 32.643 168.453 32.5223C168.332 32.4015 168.271 32.2568 168.271 32.0882C168.271 31.9196 168.332 31.7749 168.453 31.6541C168.573 31.5333 168.718 31.473 168.887 31.473C169.055 31.473 169.2 31.5333 169.321 31.6541C169.442 31.7749 169.502 31.9196 169.502 32.0882C169.502 32.1998 169.473 32.3024 169.417 32.3958C169.362 32.4892 169.288 32.5644 169.194 32.6214C169.103 32.6761 169.001 32.7034 168.887 32.7034ZM173.038 32.7444C172.587 32.7444 172.184 32.667 171.831 32.512C171.48 32.3571 171.201 32.1417 170.994 31.866C170.789 31.588 170.677 31.2656 170.659 30.8987H171.52C171.538 31.1243 171.616 31.3192 171.753 31.4832C171.889 31.645 172.068 31.7703 172.289 31.8592C172.51 31.9481 172.755 31.9925 173.024 31.9925C173.325 31.9925 173.592 31.9401 173.824 31.8353C174.056 31.7304 174.239 31.5846 174.371 31.3978C174.503 31.2109 174.569 30.9944 174.569 30.7484C174.569 30.4909 174.505 30.2641 174.378 30.0682C174.25 29.8699 174.063 29.715 173.817 29.6033C173.571 29.4917 173.27 29.4359 172.915 29.4359H172.354V28.6839H172.915C173.193 28.6839 173.437 28.6338 173.646 28.5335C173.858 28.4332 174.023 28.292 174.142 28.1097C174.263 27.9274 174.323 27.7132 174.323 27.4671C174.323 27.2301 174.271 27.0239 174.166 26.8484C174.061 26.673 173.913 26.5363 173.721 26.4383C173.532 26.3403 173.309 26.2913 173.052 26.2913C172.81 26.2913 172.582 26.3358 172.368 26.4246C172.156 26.5112 171.983 26.6377 171.848 26.804C171.714 26.9681 171.641 27.1663 171.63 27.3987H170.809C170.823 27.0319 170.934 26.7106 171.141 26.4349C171.348 26.1569 171.619 25.9404 171.954 25.7855C172.292 25.6305 172.662 25.553 173.065 25.553C173.498 25.553 173.87 25.6408 174.179 25.8162C174.489 25.9894 174.727 26.2184 174.894 26.5032C175.06 26.7881 175.143 27.0957 175.143 27.4261C175.143 27.8203 175.04 28.1564 174.832 28.4344C174.627 28.7124 174.348 28.9049 173.995 29.012V29.0667C174.437 29.1396 174.782 29.3276 175.031 29.6307C175.279 29.9315 175.403 30.304 175.403 30.7484C175.403 31.1289 175.299 31.4707 175.092 31.7737C174.887 32.0745 174.607 32.3115 174.251 32.4847C173.896 32.6579 173.491 32.7444 173.038 32.7444ZM179.125 32.7444C178.838 32.7399 178.551 32.6852 178.264 32.5804C177.977 32.4756 177.715 32.299 177.478 32.0506C177.241 31.7999 177.051 31.4616 176.907 31.0355C176.763 30.6071 176.692 30.0693 176.692 29.4222C176.692 28.8024 176.75 28.2532 176.866 27.7747C176.982 27.2939 177.151 26.8895 177.372 26.5613C177.593 26.2309 177.859 25.9803 178.172 25.8094C178.486 25.6385 178.84 25.553 179.235 25.553C179.627 25.553 179.975 25.6317 180.281 25.7889C180.588 25.9438 180.839 26.1603 181.032 26.4383C181.226 26.7163 181.351 27.0364 181.408 27.3987H180.574C180.497 27.0843 180.347 26.8234 180.123 26.616C179.9 26.4087 179.604 26.305 179.235 26.305C178.692 26.305 178.265 26.5408 177.953 27.0125C177.643 27.4842 177.487 28.1461 177.485 28.9984H177.539C177.667 28.8047 177.818 28.6395 177.994 28.5027C178.172 28.3637 178.368 28.2567 178.582 28.1815C178.796 28.1063 179.023 28.0687 179.262 28.0687C179.663 28.0687 180.03 28.1689 180.363 28.3694C180.695 28.5677 180.962 28.8423 181.162 29.1932C181.363 29.5418 181.463 29.9417 181.463 30.3929C181.463 30.8258 181.366 31.2223 181.173 31.5823C180.979 31.9401 180.707 32.2249 180.356 32.4368C180.007 32.6465 179.597 32.749 179.125 32.7444ZM179.125 31.9925C179.412 31.9925 179.67 31.9207 179.898 31.7772C180.128 31.6336 180.309 31.4411 180.441 31.1995C180.576 30.958 180.643 30.6891 180.643 30.3929C180.643 30.1035 180.578 29.8403 180.448 29.6033C180.32 29.3641 180.144 29.1738 179.918 29.0325C179.695 28.8913 179.44 28.8206 179.153 28.8206C178.936 28.8206 178.734 28.8639 178.548 28.9505C178.361 29.0348 178.197 29.151 178.055 29.2991C177.916 29.4472 177.807 29.617 177.727 29.8084C177.648 29.9975 177.608 30.1969 177.608 30.4066C177.608 30.6845 177.673 30.9443 177.802 31.1859C177.935 31.4274 178.115 31.6222 178.343 31.7703C178.573 31.9184 178.834 31.9925 179.125 31.9925ZM186.376 31.3362V30.9671C186.376 30.7119 186.428 30.4783 186.533 30.2664C186.64 30.0522 186.795 29.8813 186.998 29.7537C187.203 29.6238 187.451 29.5589 187.743 29.5589C188.039 29.5589 188.287 29.6238 188.488 29.7537C188.688 29.8813 188.84 30.0522 188.943 30.2664C189.045 30.4783 189.096 30.7119 189.096 30.9671V31.3362C189.096 31.5915 189.044 31.8262 188.939 32.0403C188.837 32.2523 188.684 32.4232 188.481 32.553C188.281 32.6806 188.034 32.7444 187.743 32.7444C187.447 32.7444 187.197 32.6806 186.994 32.553C186.791 32.4232 186.638 32.2523 186.533 32.0403C186.428 31.8262 186.376 31.5915 186.376 31.3362ZM187.073 30.9671V31.3362C187.073 31.5482 187.123 31.7384 187.223 31.907C187.324 32.0734 187.497 32.1566 187.743 32.1566C187.982 32.1566 188.151 32.0734 188.249 31.907C188.349 31.7384 188.399 31.5482 188.399 31.3362V30.9671C188.399 30.7552 188.351 30.5661 188.255 30.3997C188.16 30.2311 187.989 30.1468 187.743 30.1468C187.504 30.1468 187.332 30.2311 187.227 30.3997C187.124 30.5661 187.073 30.7552 187.073 30.9671ZM182.889 27.3304V26.9612C182.889 26.706 182.942 26.4725 183.047 26.2606C183.154 26.0464 183.309 25.8755 183.511 25.7479C183.716 25.618 183.965 25.553 184.256 25.553C184.553 25.553 184.801 25.618 185.002 25.7479C185.202 25.8755 185.354 26.0464 185.456 26.2606C185.559 26.4725 185.61 26.706 185.61 26.9612V27.3304C185.61 27.5856 185.558 27.8203 185.453 28.0345C185.35 28.2464 185.198 28.4173 184.995 28.5472C184.794 28.6748 184.548 28.7386 184.256 28.7386C183.96 28.7386 183.711 28.6748 183.508 28.5472C183.305 28.4173 183.151 28.2464 183.047 28.0345C182.942 27.8203 182.889 27.5856 182.889 27.3304ZM183.587 26.9612V27.3304C183.587 27.5423 183.637 27.7326 183.737 27.9012C183.837 28.0675 184.01 28.1507 184.256 28.1507C184.496 28.1507 184.664 28.0675 184.762 27.9012C184.863 27.7326 184.913 27.5423 184.913 27.3304V26.9612C184.913 26.7493 184.865 26.5602 184.769 26.3939C184.673 26.2252 184.503 26.1409 184.256 26.1409C184.017 26.1409 183.845 26.2252 183.74 26.3939C183.638 26.5602 183.587 26.7493 183.587 26.9612ZM183.149 32.6487L187.962 25.6487H188.741L183.928 32.6487H183.149Z" fill="#EF4444"/>
<rect x="0.996094" y="45.8987" width="213.008" height="49.0413" rx="8.52066" fill="white" fill-opacity="0.05"/>
<rect x="0.996094" y="45.8987" width="213.008" height="49.0413" rx="8.52066" stroke="#10B981" stroke-width="2"/>
<path d="M38.0104 70.4196C38.0104 77.3936 32.357 83.0471 25.3832 83.0471C18.4093 83.0471 12.7559 77.3936 12.7559 70.4196C12.7559 63.4458 18.4093 57.7924 25.3832 57.7924C32.357 57.7924 38.0104 63.4458 38.0104 70.4196Z" fill="#505050"/>
<path d="M38.0104 70.4196C38.0104 77.3936 32.357 83.0471 25.3832 83.0471C18.4093 83.0471 12.7559 77.3936 12.7559 70.4196C12.7559 63.4458 18.4093 57.7924 25.3832 57.7924C32.357 57.7924 38.0104 63.4458 38.0104 70.4196" stroke="white" stroke-opacity="0.15" stroke-width="0.793388"/>
<g opacity="0.8">
<path d="M25.3436 64.5605L25.2656 64.8256V72.5181L25.3436 72.596L28.9144 70.4853L25.3436 64.5605Z" fill="white"/>
<path d="M25.3432 64.5605L21.7725 70.4853L25.3432 72.596V68.8623V64.5605Z" fill="white"/>
<path d="M25.3438 73.7577L25.2998 73.8113V76.5516L25.3438 76.6799L28.9167 71.6481L25.3438 73.7577Z" fill="white"/>
<path d="M25.3432 76.68V73.7577L21.7725 71.6481L25.3432 76.68Z" fill="white"/>
<path d="M25.3428 72.596L28.9135 70.4853L25.3428 68.8623V72.596Z" fill="white"/>
<path d="M21.7725 70.4853L25.3432 72.596V68.8623L21.7725 70.4853Z" fill="white"/>
</g>
<path d="M45.2282 68.4194V59.1872H51.4491V60.7966H47.1801V62.9964H51.129V64.6057H47.1801V66.8101H51.4671V68.4194H45.2282ZM52.6493 60.7966V59.1872H60.2316V60.7966H57.4051V68.4194H55.4757V60.7966H52.6493ZM61.4803 68.4194V59.1872H63.4322V62.9964H67.3946V59.1872H69.342V68.4194H67.3946V64.6057H63.4322V68.4194H61.4803Z" fill="white"/>
<path d="M45.3133 82.4194V74.3413H50.3779V75.3905H46.5321V77.8518H50.1136V78.8971H46.5321V81.3702H50.4252V82.4194H45.3133ZM54.7394 76.3608V77.3075H51.4301V76.3608H54.7394ZM52.3175 74.9093H53.4969V80.6405C53.4969 80.8693 53.5311 81.0415 53.5995 81.1572C53.6678 81.2703 53.7559 81.3478 53.8638 81.3899C53.9742 81.4294 54.0938 81.4491 54.2227 81.4491C54.3174 81.4491 54.4002 81.4425 54.4712 81.4294C54.5422 81.4162 54.5974 81.4057 54.6369 81.3978L54.8499 82.3721C54.7815 82.3984 54.6842 82.4247 54.558 82.451C54.4317 82.4799 54.274 82.4957 54.0846 82.4983C53.7743 82.5036 53.4851 82.4483 53.2169 82.3326C52.9486 82.2169 52.7317 82.0381 52.566 81.7962C52.4004 81.5543 52.3175 81.2505 52.3175 80.885V74.9093ZM57.3536 78.8221V82.4194H56.1742V74.3413H57.3378V77.3469H57.4127C57.5547 77.0208 57.7717 76.7618 58.0636 76.5699C58.3554 76.3779 58.7367 76.2819 59.2074 76.2819C59.6229 76.2819 59.9858 76.3674 60.2961 76.5383C60.609 76.7092 60.8509 76.9643 61.0219 77.3035C61.1954 77.6401 61.2822 78.0608 61.2822 78.5657V82.4194H60.1028V78.7077C60.1028 78.2633 59.9884 77.9188 59.7596 77.6743C59.5309 77.4271 59.2127 77.3035 58.8051 77.3035C58.5264 77.3035 58.2766 77.3627 58.0557 77.481C57.8374 77.5993 57.6652 77.7729 57.5389 78.0017C57.4154 78.2278 57.3536 78.5013 57.3536 78.8221ZM65.4672 82.5417C64.8703 82.5417 64.3562 82.4141 63.9249 82.1591C63.4963 81.9014 63.165 81.5398 62.9309 81.0744C62.6995 80.6063 62.5838 80.058 62.5838 79.4295C62.5838 78.809 62.6995 78.262 62.9309 77.7887C63.165 77.3153 63.4911 76.9459 63.9092 76.6803C64.3299 76.4147 64.8216 76.2819 65.3844 76.2819C65.7262 76.2819 66.0575 76.3384 66.3784 76.4515C66.6992 76.5646 66.9871 76.7421 67.2422 76.984C67.4972 77.2259 67.6984 77.5402 67.8457 77.9267C67.9929 78.3107 68.0666 78.7774 68.0666 79.327V79.7451H63.2504V78.8616H66.9108C66.9108 78.5513 66.8477 78.2765 66.7215 78.0372C66.5953 77.7952 66.4178 77.6046 66.189 77.4652C65.9629 77.3259 65.6973 77.2562 65.3923 77.2562C65.0609 77.2562 64.7717 77.3377 64.5245 77.5007C64.2799 77.6611 64.0906 77.8715 63.9565 78.1318C63.825 78.3895 63.7593 78.6696 63.7593 78.972V79.6623C63.7593 80.0672 63.8303 80.4117 63.9723 80.6957C64.1169 80.9797 64.3181 81.1966 64.5758 81.3465C64.8335 81.4938 65.1346 81.5674 65.479 81.5674C65.7025 81.5674 65.9063 81.5359 66.0904 81.4727C66.2745 81.407 66.4336 81.3097 66.5677 81.1809C66.7018 81.052 66.8043 80.8929 66.8753 80.7036L67.9916 80.9048C67.9022 81.2335 67.7418 81.5214 67.5104 81.7686C67.2816 82.0131 66.9937 82.2038 66.6466 82.3405C66.3021 82.4746 65.909 82.5417 65.4672 82.5417ZM69.3751 82.4194V76.3608H70.515V77.3232H70.5782C70.6886 76.9972 70.8832 76.7408 71.1619 76.5541C71.4433 76.3647 71.7615 76.2701 72.1165 76.2701C72.1901 76.2701 72.2769 76.2727 72.3768 76.278C72.4794 76.2832 72.5596 76.2898 72.6174 76.2977V77.4258C72.5701 77.4126 72.4859 77.3982 72.365 77.3824C72.244 77.364 72.123 77.3548 72.0021 77.3548C71.7233 77.3548 71.4749 77.414 71.2566 77.5323C71.041 77.648 70.87 77.8097 70.7438 78.0174C70.6176 78.2226 70.5545 78.4566 70.5545 78.7196V82.4194H69.3751ZM73.638 82.4194V76.3608H74.8174V82.4194H73.638ZM74.2336 75.426C74.0285 75.426 73.8523 75.3576 73.7051 75.2209C73.5605 75.0815 73.4881 74.9158 73.4881 74.7239C73.4881 74.5293 73.5605 74.3636 73.7051 74.2269C73.8523 74.0875 74.0285 74.0178 74.2336 74.0178C74.4387 74.0178 74.6136 74.0875 74.7582 74.2269C74.9055 74.3636 74.9791 74.5293 74.9791 74.7239C74.9791 74.9158 74.9055 75.0815 74.7582 75.2209C74.6136 75.3576 74.4387 75.426 74.2336 75.426ZM80.2419 79.9068V76.3608H81.4253V82.4194H80.2656V81.3702H80.2025C80.0631 81.6936 79.8396 81.9632 79.532 82.1788C79.2269 82.3918 78.8469 82.4983 78.392 82.4983C78.0028 82.4983 77.6584 82.4128 77.3586 82.2419C77.0614 82.0684 76.8274 81.812 76.6565 81.4727C76.4882 81.1335 76.404 80.7141 76.404 80.2145V76.3608H77.5834V80.0725C77.5834 80.4853 77.6978 80.814 77.9266 81.0586C78.1554 81.3031 78.4525 81.4254 78.818 81.4254C79.0389 81.4254 79.2585 81.3702 79.4767 81.2597C79.6976 81.1493 79.8804 80.9823 80.025 80.7588C80.1723 80.5353 80.2446 80.2513 80.2419 79.9068ZM83.0099 82.4194V76.3608H84.142V77.3469H84.2169C84.3431 77.0129 84.5496 76.7526 84.8362 76.5659C85.1228 76.3766 85.466 76.2819 85.8657 76.2819C86.2706 76.2819 86.6099 76.3766 86.8833 76.5659C87.1594 76.7552 87.3632 77.0156 87.4947 77.3469H87.5578C87.7025 77.0235 87.9325 76.7658 88.2481 76.5738C88.5636 76.3792 88.9397 76.2819 89.3762 76.2819C89.9258 76.2819 90.3741 76.4542 90.7212 76.7986C91.071 77.1431 91.2458 77.6625 91.2458 78.3567V82.4194H90.0665V78.4671C90.0665 78.0569 89.9547 77.7597 89.7312 77.5757C89.5077 77.3916 89.2408 77.2996 88.9305 77.2996C88.5466 77.2996 88.2481 77.4179 88.0351 77.6546C87.8221 77.8886 87.7156 78.1897 87.7156 78.5578V82.4194H86.5402V78.3922C86.5402 78.0635 86.4376 77.7992 86.2325 77.5993C86.0274 77.3995 85.7605 77.2996 85.4318 77.2996C85.2083 77.2996 85.0019 77.3587 84.8125 77.4771C84.6258 77.5928 84.4746 77.7545 84.3589 77.9622C84.2458 78.17 84.1893 78.4106 84.1893 78.6841V82.4194H83.0099Z" fill="#64748B"/>
<path d="M162.58 67.4292V57.3315H163.227V67.4292H162.58ZM164.604 60.4634C164.562 60.09 164.388 59.8007 164.083 59.5956C163.778 59.3878 163.394 59.284 162.932 59.284C162.6 59.284 162.314 59.3366 162.072 59.4418C161.83 59.5443 161.642 59.6863 161.508 59.8678C161.376 60.0466 161.31 60.2504 161.31 60.4791C161.31 60.6711 161.355 60.8368 161.444 60.9761C161.537 61.1155 161.656 61.2325 161.803 61.3272C161.953 61.4192 162.114 61.4968 162.285 61.5599C162.456 61.6204 162.62 61.6703 162.778 61.7098L163.567 61.9149C163.824 61.978 164.089 62.0635 164.359 62.1713C164.63 62.2791 164.881 62.4211 165.113 62.5973C165.344 62.7735 165.531 62.9917 165.673 63.252C165.817 63.5124 165.89 63.824 165.89 64.1869C165.89 64.6444 165.771 65.0507 165.535 65.4057C165.301 65.7607 164.96 66.0407 164.513 66.2458C164.069 66.451 163.531 66.5535 162.9 66.5535C162.295 66.5535 161.772 66.4575 161.33 66.2656C160.888 66.0736 160.543 65.8014 160.293 65.4491C160.043 65.0941 159.905 64.6733 159.879 64.1869H161.101C161.125 64.4788 161.22 64.722 161.385 64.9166C161.554 65.1085 161.768 65.2519 162.028 65.3465C162.291 65.4386 162.579 65.4846 162.892 65.4846C163.237 65.4846 163.543 65.4307 163.811 65.3229C164.082 65.2124 164.295 65.0599 164.45 64.8653C164.605 64.6681 164.683 64.438 164.683 64.175C164.683 63.9357 164.614 63.7398 164.478 63.5873C164.344 63.4348 164.161 63.3086 163.929 63.2087C163.701 63.1087 163.442 63.0206 163.152 62.9444L162.198 62.6841C161.551 62.5079 161.038 62.2489 160.66 61.907C160.283 61.5652 160.095 61.1129 160.095 60.5501C160.095 60.0847 160.222 59.6784 160.474 59.3313C160.727 58.9842 161.068 58.7147 161.5 58.5227C161.931 58.3281 162.417 58.2308 162.959 58.2308C163.506 58.2308 163.989 58.3268 164.407 58.5188C164.827 58.7107 165.159 58.975 165.401 59.3116C165.643 59.6455 165.769 60.0295 165.779 60.4634H164.604ZM170.301 58.3413V66.4194H169.078V59.564H169.031L167.098 60.8262V59.6587L169.113 58.3413H170.301ZM172.316 64.8416V63.8555L175.807 58.3413H176.584V59.7928H176.091L173.594 63.7451V63.8082H178.379V64.8416H172.316ZM176.146 66.4194V64.5419L176.154 64.0922V58.3413H177.31V66.4194H176.146ZM182.574 66.5298C182.213 66.5246 181.858 66.4588 181.509 66.3326C181.162 66.2064 180.846 65.996 180.562 65.7015C180.278 65.407 180.051 65.0113 179.88 64.5143C179.711 64.0173 179.627 63.3967 179.627 62.6525C179.627 61.9478 179.697 61.3219 179.836 60.775C179.978 60.228 180.182 59.7665 180.448 59.3905C180.713 59.0118 181.034 58.7239 181.41 58.5267C181.786 58.3294 182.208 58.2308 182.676 58.2308C183.157 58.2308 183.585 58.3255 183.958 58.5148C184.332 58.7042 184.634 58.9658 184.865 59.2998C185.099 59.6337 185.248 60.0137 185.311 60.4397H184.108C184.027 60.1031 183.865 59.8283 183.623 59.6153C183.381 59.4023 183.065 59.2958 182.676 59.2958C182.085 59.2958 181.623 59.5535 181.292 60.0689C180.963 60.5843 180.797 61.3009 180.795 62.2186H180.854C180.993 61.9898 181.164 61.7952 181.367 61.6348C181.572 61.4718 181.801 61.3469 182.053 61.2601C182.308 61.1707 182.576 61.126 182.858 61.126C183.326 61.126 183.749 61.2404 184.128 61.4692C184.509 61.6953 184.813 62.0082 185.039 62.4079C185.265 62.8076 185.378 63.2652 185.378 63.7806C185.378 64.296 185.261 64.7628 185.027 65.1809C184.796 65.599 184.47 65.9303 184.049 66.1749C183.628 66.4168 183.136 66.5351 182.574 66.5298ZM182.57 65.5043C182.88 65.5043 183.157 65.428 183.402 65.2755C183.647 65.123 183.84 64.9179 183.982 64.6602C184.124 64.4025 184.195 64.1146 184.195 63.7964C184.195 63.4861 184.125 63.2034 183.986 62.9483C183.849 62.6933 183.66 62.4908 183.418 62.3409C183.178 62.191 182.905 62.1161 182.597 62.1161C182.363 62.1161 182.146 62.1608 181.946 62.2502C181.749 62.3396 181.576 62.4632 181.426 62.6209C181.276 62.7787 181.158 62.9602 181.071 63.1653C180.987 63.3678 180.945 63.5821 180.945 63.8082C180.945 64.1106 181.014 64.3907 181.154 64.6484C181.296 64.9061 181.489 65.1138 181.733 65.2716C181.981 65.4267 182.259 65.5043 182.57 65.5043ZM187.239 66.4943C187.023 66.4943 186.838 66.4181 186.683 66.2656C186.528 66.1104 186.45 65.9237 186.45 65.7055C186.45 65.4898 186.528 65.3058 186.683 65.1532C186.838 64.9981 187.023 64.9205 187.239 64.9205C187.455 64.9205 187.64 64.9981 187.795 65.1532C187.95 65.3058 188.028 65.4898 188.028 65.7055C188.028 65.8501 187.991 65.9829 187.917 66.1039C187.846 66.2222 187.752 66.3168 187.633 66.3878C187.515 66.4588 187.384 66.4943 187.239 66.4943ZM189.658 66.4194L193.184 59.4457V59.3865H189.106V58.3413H194.446V59.422L190.932 66.4194H189.658ZM194.998 64.8416V63.8555L198.488 58.3413H199.265V59.7928H198.772L196.276 63.7451V63.8082H201.06V64.8416H194.998ZM198.828 66.4194V64.5419L198.835 64.0922V58.3413H199.991V66.4194H198.828Z" fill="#F1F5F9"/>
<path d="M162.701 80.5351H168.614C168.719 80.5347 168.821 80.5032 168.907 80.4447C168.994 80.3863 169.062 80.3034 169.101 80.2066C169.141 80.1098 169.151 80.0034 169.13 79.9009C169.109 79.7983 169.058 79.7043 168.984 79.6307L166.033 76.6793C165.984 76.6297 165.925 76.5903 165.861 76.5635C165.796 76.5366 165.727 76.5228 165.657 76.5228C165.587 76.5228 165.518 76.5366 165.454 76.5635C165.389 76.5903 165.331 76.6297 165.282 76.6793L162.33 79.6307C162.256 79.7043 162.205 79.7983 162.184 79.9009C162.164 80.0034 162.174 80.1098 162.213 80.2066C162.253 80.3034 162.32 80.3863 162.407 80.4447C162.494 80.5032 162.596 80.5347 162.701 80.5351Z" fill="#10B981"/>
<path d="M175.476 82.5298C174.882 82.5298 174.375 82.3681 173.957 82.0447C173.539 81.7186 173.22 81.2466 172.999 80.6286C172.778 80.0081 172.668 79.2586 172.668 78.3803C172.668 77.5073 172.778 76.7618 172.999 76.1439C173.222 75.5233 173.543 75.0499 173.961 74.7239C174.382 74.3952 174.887 74.2308 175.476 74.2308C176.065 74.2308 176.569 74.3952 176.987 74.7239C177.407 75.0499 177.728 75.5233 177.949 76.1439C178.173 76.7618 178.284 77.5073 178.284 78.3803C178.284 79.2586 178.174 80.0081 177.953 80.6286C177.732 81.2466 177.413 81.7186 176.995 82.0447C176.576 82.3681 176.07 82.5298 175.476 82.5298ZM175.476 81.6621C176.065 81.6621 176.523 81.3781 176.849 80.8101C177.175 80.2421 177.338 79.4322 177.338 78.3803C177.338 77.6809 177.263 77.0853 177.113 76.5935C176.966 76.1018 176.753 75.7271 176.474 75.4694C176.198 75.2117 175.865 75.0828 175.476 75.0828C174.892 75.0828 174.436 75.3708 174.107 75.9466C173.779 76.5199 173.614 77.3311 173.614 78.3803C173.614 79.0798 173.688 79.6741 173.835 80.1632C173.982 80.6523 174.194 81.0244 174.47 81.2795C174.749 81.5345 175.084 81.6621 175.476 81.6621ZM180.195 82.4825C180.001 82.4825 179.834 82.4128 179.694 82.2735C179.555 82.1341 179.485 81.9671 179.485 81.7725C179.485 81.5779 179.555 81.411 179.694 81.2716C179.834 81.1322 180.001 81.0625 180.195 81.0625C180.39 81.0625 180.557 81.1322 180.696 81.2716C180.836 81.411 180.905 81.5779 180.905 81.7725C180.905 81.9014 180.873 82.0197 180.807 82.1275C180.744 82.2353 180.658 82.3221 180.55 82.3878C180.445 82.451 180.327 82.4825 180.195 82.4825ZM184.435 74.3413V82.4194H183.456V75.3668H183.409L181.437 76.6764V75.6824L183.456 74.3413H184.435ZM186.758 82.4194V81.7094L189.424 78.7906C189.737 78.4487 189.995 78.1516 190.197 77.8991C190.4 77.644 190.55 77.4048 190.647 77.1812C190.747 76.9551 190.797 76.7184 190.797 76.4712C190.797 76.1872 190.729 75.9414 190.592 75.7336C190.458 75.5259 190.274 75.3655 190.04 75.2524C189.806 75.1394 189.543 75.0828 189.251 75.0828C188.941 75.0828 188.67 75.1472 188.438 75.2761C188.209 75.4023 188.032 75.5798 187.906 75.8086C187.782 76.0374 187.72 76.3056 187.72 76.6132H186.789C186.789 76.1399 186.899 75.7244 187.117 75.3668C187.335 75.0092 187.632 74.7304 188.008 74.5306C188.387 74.3307 188.812 74.2308 189.282 74.2308C189.756 74.2308 190.175 74.3307 190.541 74.5306C190.906 74.7304 191.193 75 191.4 75.3392C191.608 75.6784 191.712 76.0558 191.712 76.4712C191.712 76.7684 191.658 77.059 191.55 77.343C191.445 77.6243 191.261 77.9386 190.998 78.2857C190.738 78.6301 190.376 79.0509 189.913 79.5479L188.099 81.4885V81.5516H191.854V82.4194H186.758ZM197.601 80.9048V80.4788C197.601 80.1842 197.662 79.9147 197.783 79.6702C197.906 79.423 198.085 79.2258 198.319 79.0785C198.556 78.9286 198.842 78.8537 199.179 78.8537C199.521 78.8537 199.807 78.9286 200.039 79.0785C200.27 79.2258 200.445 79.423 200.563 79.6702C200.682 79.9147 200.741 80.1842 200.741 80.4788V80.9048C200.741 81.1993 200.68 81.4701 200.559 81.7173C200.441 81.9619 200.265 82.1591 200.031 82.309C199.799 82.4562 199.515 82.5298 199.179 82.5298C198.837 82.5298 198.549 82.4562 198.315 82.309C198.081 82.1591 197.904 81.9619 197.783 81.7173C197.662 81.4701 197.601 81.1993 197.601 80.9048ZM198.406 80.4788V80.9048C198.406 81.1493 198.464 81.3689 198.579 81.5635C198.695 81.7554 198.895 81.8514 199.179 81.8514C199.455 81.8514 199.65 81.7554 199.763 81.5635C199.878 81.3689 199.936 81.1493 199.936 80.9048V80.4788C199.936 80.2342 199.881 80.0159 199.771 79.824C199.66 79.6294 199.463 79.5321 199.179 79.5321C198.903 79.5321 198.704 79.6294 198.583 79.824C198.465 80.0159 198.406 80.2342 198.406 80.4788ZM193.578 76.2819V75.8559C193.578 75.5614 193.638 75.2919 193.759 75.0473C193.883 74.8001 194.062 74.6029 194.296 74.4557C194.532 74.3058 194.819 74.2308 195.156 74.2308C195.497 74.2308 195.784 74.3058 196.015 74.4557C196.247 74.6029 196.422 74.8001 196.54 75.0473C196.658 75.2919 196.718 75.5614 196.718 75.8559V76.2819C196.718 76.5764 196.657 76.8473 196.536 77.0945C196.418 77.339 196.242 77.5362 196.008 77.6861C195.776 77.8334 195.492 77.907 195.156 77.907C194.814 77.907 194.526 77.8334 194.292 77.6861C194.058 77.5362 193.88 77.339 193.759 77.0945C193.638 76.8473 193.578 76.5764 193.578 76.2819ZM194.382 75.8559V76.2819C194.382 76.5265 194.44 76.746 194.556 76.9406C194.672 77.1326 194.872 77.2286 195.156 77.2286C195.432 77.2286 195.626 77.1326 195.739 76.9406C195.855 76.746 195.913 76.5265 195.913 76.2819V75.8559C195.913 75.6114 195.858 75.3931 195.747 75.2011C195.637 75.0066 195.44 74.9093 195.156 74.9093C194.879 74.9093 194.681 75.0066 194.56 75.2011C194.442 75.3931 194.382 75.6114 194.382 75.8559ZM193.878 82.4194L199.431 74.3413H200.331L194.777 82.4194H193.878Z" fill="#10B981"/>
<path opacity="0.2" d="M35.6494 129.378C41.7839 129.378 46.7569 124.405 46.7569 118.271C46.7569 112.136 41.7839 107.163 35.6494 107.163C29.515 107.163 24.542 112.136 24.542 118.271C24.542 124.405 29.515 129.378 35.6494 129.378Z" fill="#66A97D"/>
<path fill-rule="evenodd" clip-rule="evenodd" d="M40.8038 117.315L39.7224 116.233C39.6933 116.207 39.6555 116.191 39.616 116.191H34.6747C34.6281 116.185 34.5813 116.201 34.5475 116.233L33.466 117.315C33.4395 117.344 33.4244 117.381 33.4236 117.42V117.654C33.4228 117.694 33.4382 117.732 33.4663 117.76C33.4944 117.788 33.5327 117.803 33.5724 117.802H34.4417C34.4841 117.802 34.505 117.781 34.5475 117.76L35.0356 117.251H39.2557L39.7009 117.696V121.768L39.2557 122.214H35.0356L34.5475 121.726C34.5217 121.695 34.4819 121.679 34.4417 121.684H33.5724C33.5326 121.683 33.4942 121.698 33.4661 121.726C33.4379 121.754 33.4226 121.793 33.4236 121.832V122.065C33.4203 122.095 33.428 122.125 33.4451 122.15C33.4451 122.172 33.466 122.172 33.466 122.193L34.5475 123.274C34.5766 123.301 34.6144 123.316 34.6538 123.316H39.616C39.6584 123.316 39.68 123.296 39.7224 123.274L40.8038 122.193C40.8303 122.164 40.8454 122.126 40.8463 122.087V117.423C40.8481 117.38 40.8248 117.359 40.8038 117.315Z" fill="#66A97D"/>
<path fill-rule="evenodd" clip-rule="evenodd" d="M36.626 120.264C36.6685 120.264 36.6894 120.244 36.7318 120.222L37.8133 119.141C37.84 119.112 37.8551 119.074 37.8557 119.035V118.78C37.8567 118.741 37.8414 118.702 37.8134 118.674C37.7854 118.646 37.7472 118.631 37.7075 118.632H36.8381C36.7957 118.632 36.7742 118.653 36.7318 118.674L36.2472 119.183H32.0241L31.5784 118.738L31.5999 114.708L32.045 114.263H36.2651L36.7533 114.751C36.7821 114.778 36.8198 114.793 36.8591 114.793H37.7284C37.7681 114.794 37.8064 114.779 37.8345 114.751C37.8626 114.723 37.878 114.685 37.8772 114.645V114.433C37.8804 114.403 37.8728 114.373 37.8557 114.348C37.8557 114.327 37.8348 114.327 37.8348 114.306L36.7533 113.224C36.7109 113.224 36.6685 113.203 36.626 113.203H31.6847C31.6454 113.204 31.6076 113.219 31.5784 113.245L30.4969 114.327C30.4709 114.348 30.4553 114.379 30.4545 114.412L30.4336 119.056C30.4336 119.099 30.4545 119.12 30.476 119.163L31.5575 120.242C31.5864 120.269 31.624 120.284 31.6632 120.285H36.6057C36.6057 120.264 36.6057 120.264 36.626 120.264Z" fill="#66A97D"/>
<path d="M60.1402 111.521H58.4125C58.381 111.297 58.3166 111.099 58.2193 110.925C58.122 110.749 57.9971 110.599 57.8445 110.475C57.692 110.352 57.5158 110.257 57.316 110.191C57.1188 110.126 56.9045 110.093 56.6731 110.093C56.2549 110.093 55.8907 110.197 55.5805 110.404C55.2702 110.609 55.0296 110.909 54.8586 111.304C54.6877 111.695 54.6022 112.171 54.6022 112.732C54.6022 113.307 54.6877 113.791 54.8586 114.183C55.0322 114.575 55.2741 114.871 55.5844 115.071C55.8947 115.27 56.2536 115.37 56.6612 115.37C56.89 115.37 57.1017 115.34 57.2963 115.28C57.4935 115.219 57.6684 115.131 57.8209 115.015C57.9734 114.897 58.0996 114.754 58.1995 114.585C58.3021 114.417 58.3731 114.225 58.4125 114.01L60.1402 114.017C60.0955 114.388 59.9837 114.746 59.8049 115.09C59.6287 115.432 59.3908 115.739 59.091 116.009C58.7938 116.278 58.4388 116.491 58.026 116.648C57.6158 116.803 57.1516 116.881 56.6336 116.881C55.9131 116.881 55.2688 116.718 54.7009 116.392C54.1355 116.066 53.6885 115.594 53.3598 114.976C53.0337 114.358 52.8707 113.61 52.8707 112.732C52.8707 111.851 53.0363 111.101 53.3676 110.483C53.699 109.865 54.1486 109.395 54.7166 109.071C55.2846 108.745 55.9236 108.582 56.6336 108.582C57.1017 108.582 57.5356 108.648 57.9353 108.779C58.3376 108.911 58.6939 109.103 59.0042 109.355C59.3145 109.605 59.5669 109.911 59.7615 110.274C59.9587 110.637 60.085 111.053 60.1402 111.521ZM68.7883 112.732C68.7883 113.612 68.6213 114.362 68.2874 114.98C67.956 115.598 67.5037 116.07 66.9305 116.396C66.3599 116.719 65.7182 116.881 65.0056 116.881C64.2877 116.881 63.6435 116.718 63.0728 116.392C62.5022 116.066 62.0512 115.594 61.7199 114.976C61.3886 114.358 61.2229 113.61 61.2229 112.732C61.2229 111.851 61.3886 111.101 61.7199 110.483C62.0512 109.865 62.5022 109.395 63.0728 109.071C63.6435 108.745 64.2877 108.582 65.0056 108.582C65.7182 108.582 66.3599 108.745 66.9305 109.071C67.5037 109.395 67.956 109.865 68.2874 110.483C68.6213 111.101 68.7883 111.851 68.7883 112.732ZM67.0567 112.732C67.0567 112.161 66.9712 111.68 66.8003 111.288C66.632 110.896 66.394 110.599 66.0864 110.396C65.7787 110.194 65.4185 110.093 65.0056 110.093C64.5928 110.093 64.2325 110.194 63.9248 110.396C63.6172 110.599 63.3779 110.896 63.207 111.288C63.0387 111.68 62.9545 112.161 62.9545 112.732C62.9545 113.302 63.0387 113.783 63.207 114.175C63.3779 114.567 63.6172 114.864 63.9248 115.067C64.2325 115.269 64.5928 115.37 65.0056 115.37C65.4185 115.37 65.7787 115.269 66.0864 115.067C66.394 114.864 66.632 114.567 66.8003 114.175C66.9712 113.783 67.0567 113.302 67.0567 112.732ZM70.0535 116.771V108.692H71.7614V115.362H75.2246V116.771H70.0535ZM77.9571 108.692L79.5861 111.446H79.6492L81.2861 108.692H83.2149L80.7497 112.732L83.2702 116.771H81.3059L79.6492 114.013H79.5861L77.9294 116.771H75.973L78.5014 112.732L76.0204 108.692H77.9571Z" fill="white"/>
<path d="M58.9579 124.001H57.881C57.8396 123.771 57.7625 123.568 57.6498 123.393C57.537 123.219 57.399 123.07 57.2356 122.948C57.0723 122.826 56.8893 122.734 56.6869 122.672C56.4867 122.61 56.2739 122.579 56.0484 122.579C55.6411 122.579 55.2764 122.681 54.9543 122.886C54.6345 123.091 54.3814 123.391 54.195 123.787C54.0109 124.183 53.9189 124.666 53.9189 125.236C53.9189 125.812 54.0109 126.297 54.195 126.693C54.3814 127.089 54.6356 127.388 54.9577 127.59C55.2799 127.793 55.6423 127.894 56.0449 127.894C56.2681 127.894 56.4798 127.864 56.68 127.804C56.8824 127.742 57.0654 127.651 57.2287 127.532C57.3921 127.412 57.5301 127.266 57.6429 127.093C57.7579 126.918 57.8373 126.718 57.881 126.493L58.9579 126.496C58.9003 126.844 58.7887 127.163 58.6231 127.456C58.4597 127.746 58.2492 127.996 57.9915 128.208C57.7361 128.417 57.4439 128.58 57.1148 128.695C56.7858 128.81 56.4269 128.867 56.038 128.867C55.426 128.867 54.8807 128.722 54.4021 128.432C53.9235 128.14 53.5461 127.723 53.27 127.18C52.9962 126.637 52.8593 125.989 52.8593 125.236C52.8593 124.482 52.9974 123.834 53.2735 123.293C53.5496 122.75 53.9269 122.334 54.4055 122.044C54.8841 121.752 55.4283 121.606 56.038 121.606C56.4131 121.606 56.7628 121.66 57.0872 121.768C57.4139 121.874 57.7073 122.03 57.9673 122.237C58.2273 122.442 58.4424 122.693 58.6127 122.99C58.783 123.284 58.898 123.621 58.9579 124.001ZM62.3842 128.878C61.8872 128.878 61.4535 128.764 61.083 128.536C60.7126 128.308 60.425 127.989 60.2202 127.58C60.0154 127.17 59.913 126.692 59.913 126.144C59.913 125.594 60.0154 125.113 60.2202 124.701C60.425 124.29 60.7126 123.97 61.083 123.742C61.4535 123.514 61.8872 123.4 62.3842 123.4C62.8812 123.4 63.3149 123.514 63.6853 123.742C64.0558 123.97 64.3434 124.29 64.5482 124.701C64.753 125.113 64.8554 125.594 64.8554 126.144C64.8554 126.692 64.753 127.17 64.5482 127.58C64.3434 127.989 64.0558 128.308 63.6853 128.536C63.3149 128.764 62.8812 128.878 62.3842 128.878ZM62.3876 128.011C62.7098 128.011 62.9767 127.926 63.1883 127.756C63.4 127.586 63.5565 127.359 63.6577 127.076C63.7613 126.793 63.813 126.481 63.813 126.141C63.813 125.802 63.7613 125.492 63.6577 125.209C63.5565 124.924 63.4 124.695 63.1883 124.522C62.9767 124.349 62.7098 124.263 62.3876 124.263C62.0632 124.263 61.794 124.349 61.58 124.522C61.3683 124.695 61.2107 124.924 61.1072 125.209C61.0059 125.492 60.9553 125.802 60.9553 126.141C60.9553 126.481 61.0059 126.793 61.1072 127.076C61.2107 127.359 61.3683 127.586 61.58 127.756C61.794 127.926 62.0632 128.011 62.3876 128.011ZM67.0392 121.702V128.771H66.0072V121.702H67.0392ZM70.6605 128.878C70.1635 128.878 69.7298 128.764 69.3594 128.536C68.9889 128.308 68.7013 127.989 68.4965 127.58C68.2917 127.17 68.1894 126.692 68.1894 126.144C68.1894 125.594 68.2917 125.113 68.4965 124.701C68.7013 124.29 68.9889 123.97 69.3594 123.742C69.7298 123.514 70.1635 123.4 70.6605 123.4C71.1575 123.4 71.5912 123.514 71.9617 123.742C72.3321 123.97 72.6197 124.29 72.8245 124.701C73.0293 125.113 73.1317 125.594 73.1317 126.144C73.1317 126.692 73.0293 127.17 72.8245 127.58C72.6197 127.989 72.3321 128.308 71.9617 128.536C71.5912 128.764 71.1575 128.878 70.6605 128.878ZM70.664 128.011C70.9861 128.011 71.253 127.926 71.4647 127.756C71.6764 127.586 71.8328 127.359 71.9341 127.076C72.0376 126.793 72.0894 126.481 72.0894 126.141C72.0894 125.802 72.0376 125.492 71.9341 125.209C71.8328 124.924 71.6764 124.695 71.4647 124.522C71.253 124.349 70.9861 124.263 70.664 124.263C70.3395 124.263 70.0703 124.349 69.8564 124.522C69.6447 124.695 69.4871 124.924 69.3835 125.209C69.2823 125.492 69.2317 125.802 69.2317 126.141C69.2317 126.481 69.2823 126.793 69.3835 127.076C69.4871 127.359 69.6447 127.586 69.8564 127.756C70.0703 127.926 70.3395 128.011 70.664 128.011ZM78.2561 124.764L77.3208 124.929C77.2817 124.81 77.2195 124.696 77.1344 124.588C77.0516 124.479 76.9388 124.391 76.7962 124.322C76.6535 124.253 76.4752 124.218 76.2612 124.218C75.969 124.218 75.7251 124.284 75.5295 124.415C75.3339 124.544 75.2362 124.711 75.2362 124.915C75.2362 125.093 75.3017 125.235 75.4329 125.343C75.564 125.452 75.7757 125.54 76.0679 125.609L76.9101 125.802C77.3979 125.915 77.7614 126.089 78.0007 126.324C78.24 126.558 78.3596 126.863 78.3596 127.238C78.3596 127.556 78.2676 127.839 78.0835 128.087C77.9018 128.333 77.6475 128.527 77.3208 128.667C76.9963 128.807 76.6201 128.878 76.1922 128.878C75.5985 128.878 75.1142 128.751 74.7392 128.498C74.3641 128.243 74.134 127.88 74.0489 127.411L75.0463 127.259C75.1085 127.519 75.2362 127.716 75.4294 127.849C75.6227 127.98 75.8747 128.046 76.1853 128.046C76.5235 128.046 76.7939 127.976 76.9963 127.835C77.1988 127.693 77.3001 127.519 77.3001 127.314C77.3001 127.148 77.2379 127.009 77.1137 126.897C76.9917 126.784 76.8042 126.699 76.5511 126.641L75.6538 126.444C75.1591 126.332 74.7932 126.152 74.5562 125.906C74.3215 125.66 74.2042 125.348 74.2042 124.971C74.2042 124.658 74.2916 124.384 74.4665 124.149C74.6414 123.915 74.883 123.732 75.1913 123.601C75.4996 123.467 75.8528 123.4 76.2509 123.4C76.8238 123.4 77.2748 123.525 77.6038 123.773C77.9328 124.019 78.1502 124.349 78.2561 124.764ZM83.4668 124.764L82.5315 124.929C82.4923 124.81 82.4302 124.696 82.3451 124.588C82.2622 124.479 82.1495 124.391 82.0068 124.322C81.8642 124.253 81.6859 124.218 81.4719 124.218C81.1797 124.218 80.9358 124.284 80.7402 124.415C80.5446 124.544 80.4468 124.711 80.4468 124.915C80.4468 125.093 80.5124 125.235 80.6436 125.343C80.7747 125.452 80.9864 125.54 81.2786 125.609L82.1207 125.802C82.6085 125.915 82.9721 126.089 83.2114 126.324C83.4507 126.558 83.5703 126.863 83.5703 127.238C83.5703 127.556 83.4783 127.839 83.2942 128.087C83.1124 128.333 82.8582 128.527 82.5315 128.667C82.207 128.807 81.8308 128.878 81.4029 128.878C80.8092 128.878 80.3249 128.751 79.9498 128.498C79.5748 128.243 79.3447 127.88 79.2596 127.411L80.257 127.259C80.3191 127.519 80.4468 127.716 80.6401 127.849C80.8334 127.98 81.0853 128.046 81.396 128.046C81.7342 128.046 82.0045 127.976 82.207 127.835C82.4095 127.693 82.5107 127.519 82.5107 127.314C82.5107 127.148 82.4486 127.009 82.3244 126.897C82.2024 126.784 82.0149 126.699 81.7618 126.641L80.8644 126.444C80.3698 126.332 80.0039 126.152 79.7669 125.906C79.5322 125.66 79.4149 125.348 79.4149 124.971C79.4149 124.658 79.5023 124.384 79.6772 124.149C79.8521 123.915 80.0936 123.732 80.402 123.601C80.7103 123.467 81.0635 123.4 81.4615 123.4C82.0345 123.4 82.4854 123.525 82.8145 123.773C83.1435 124.019 83.3609 124.349 83.4668 124.764ZM88.0631 126.572V123.469H89.0985V128.771H88.0838V127.853H88.0286C87.9066 128.136 87.7111 128.371 87.4419 128.56C87.175 128.746 86.8425 128.84 86.4444 128.84C86.1039 128.84 85.8025 128.765 85.5402 128.615C85.2802 128.463 85.0754 128.239 84.9258 127.942C84.7786 127.645 84.7049 127.278 84.7049 126.841V123.469H85.7369V126.717C85.7369 127.078 85.837 127.366 86.0372 127.58C86.2373 127.794 86.4973 127.901 86.8172 127.901C87.0104 127.901 87.2026 127.853 87.3935 127.756C87.5868 127.659 87.7467 127.513 87.8733 127.318C88.0021 127.122 88.0654 126.874 88.0631 126.572ZM94.4576 124.764L93.5223 124.929C93.4832 124.81 93.421 124.696 93.3359 124.588C93.2531 124.479 93.1403 124.391 92.9977 124.322C92.855 124.253 92.6767 124.218 92.4627 124.218C92.1705 124.218 91.9266 124.284 91.731 124.415C91.5355 124.544 91.4377 124.711 91.4377 124.915C91.4377 125.093 91.5032 125.235 91.6344 125.343C91.7655 125.452 91.9772 125.54 92.2694 125.609L93.1116 125.802C93.5994 125.915 93.9629 126.089 94.2022 126.324C94.4415 126.558 94.5611 126.863 94.5611 127.238C94.5611 127.556 94.4691 127.839 94.285 128.087C94.1033 128.333 93.849 128.527 93.5223 128.667C93.1979 128.807 92.8217 128.878 92.3937 128.878C91.8001 128.878 91.3157 128.751 90.9407 128.498C90.5656 128.243 90.3355 127.88 90.2504 127.411L91.2478 127.259C91.31 127.519 91.4377 127.716 91.6309 127.849C91.8242 127.98 92.0762 128.046 92.3868 128.046C92.725 128.046 92.9954 127.976 93.1979 127.835C93.4003 127.693 93.5016 127.519 93.5016 127.314C93.5016 127.148 93.4395 127.009 93.3152 126.897C93.1933 126.784 93.0057 126.699 92.7526 126.641L91.8553 126.444C91.3606 126.332 90.9947 126.152 90.7578 125.906C90.5231 125.66 90.4057 125.348 90.4057 124.971C90.4057 124.658 90.4931 124.384 90.668 124.149C90.8429 123.915 91.0845 123.732 91.3928 123.601C91.7011 123.467 92.0543 123.4 92.4524 123.4C93.0253 123.4 93.4763 123.525 93.8053 123.773C94.1343 124.019 94.3518 124.349 94.4576 124.764ZM96.5206 121.702L98.2118 124.467H98.267L99.9582 121.702H101.194L98.9918 125.236L101.208 128.771H99.9651L98.267 126.044H98.2118L96.5137 128.771H95.2713L97.525 125.236L95.2851 121.702H96.5206ZM101.903 122.62V121.702H107.373V122.62H105.168V128.771H104.105V122.62H101.903Z" fill="#64748B"/>
<path d="M145.32 115.154V106.319H145.886V115.154H145.32ZM147.091 109.059C147.054 108.732 146.902 108.479 146.635 108.3C146.368 108.118 146.032 108.027 145.627 108.027C145.337 108.027 145.087 108.073 144.875 108.165C144.663 108.255 144.499 108.379 144.381 108.538C144.266 108.694 144.209 108.873 144.209 109.073C144.209 109.241 144.248 109.386 144.326 109.508C144.407 109.63 144.511 109.732 144.64 109.815C144.771 109.895 144.912 109.963 145.061 110.019C145.211 110.071 145.355 110.115 145.493 110.15L146.183 110.329C146.408 110.384 146.64 110.459 146.877 110.554C147.114 110.648 147.333 110.772 147.536 110.926C147.738 111.08 147.902 111.271 148.026 111.499C148.153 111.727 148.216 112 148.216 112.317C148.216 112.718 148.112 113.073 147.905 113.384C147.7 113.694 147.402 113.939 147.011 114.119C146.622 114.298 146.152 114.388 145.6 114.388C145.071 114.388 144.613 114.304 144.226 114.136C143.84 113.968 143.537 113.73 143.318 113.422C143.1 113.111 142.979 112.743 142.956 112.317H144.026C144.047 112.573 144.129 112.785 144.274 112.956C144.422 113.124 144.609 113.249 144.837 113.332C145.067 113.412 145.319 113.453 145.593 113.453C145.894 113.453 146.162 113.405 146.397 113.311C146.634 113.215 146.82 113.081 146.956 112.911C147.092 112.738 147.16 112.537 147.16 112.307C147.16 112.097 147.1 111.926 146.98 111.793C146.863 111.659 146.703 111.549 146.501 111.461C146.3 111.374 146.074 111.297 145.821 111.23L144.985 111.002C144.419 110.848 143.971 110.621 143.639 110.322C143.31 110.023 143.146 109.627 143.146 109.135C143.146 108.728 143.256 108.372 143.477 108.069C143.698 107.765 143.997 107.529 144.374 107.361C144.752 107.191 145.177 107.106 145.651 107.106C146.13 107.106 146.552 107.19 146.918 107.358C147.286 107.526 147.576 107.757 147.788 108.051C148 108.344 148.11 108.679 148.119 109.059H147.091ZM151.861 114.367C151.546 114.363 151.235 114.305 150.929 114.195C150.626 114.084 150.35 113.9 150.101 113.642C149.853 113.385 149.654 113.038 149.504 112.604C149.357 112.169 149.283 111.626 149.283 110.975C149.283 110.358 149.344 109.81 149.466 109.332C149.59 108.853 149.769 108.449 150.001 108.12C150.233 107.789 150.514 107.537 150.843 107.364C151.172 107.192 151.542 107.106 151.951 107.106C152.372 107.106 152.746 107.188 153.073 107.354C153.399 107.52 153.664 107.749 153.867 108.041C154.071 108.333 154.201 108.666 154.257 109.038H153.204C153.133 108.744 152.991 108.503 152.779 108.317C152.568 108.131 152.292 108.037 151.951 108.037C151.433 108.037 151.03 108.263 150.74 108.714C150.452 109.165 150.307 109.792 150.305 110.595H150.357C150.478 110.395 150.628 110.224 150.805 110.084C150.985 109.941 151.185 109.832 151.406 109.756C151.629 109.678 151.864 109.639 152.11 109.639C152.519 109.639 152.89 109.739 153.221 109.939C153.555 110.137 153.821 110.411 154.018 110.761C154.216 111.11 154.315 111.511 154.315 111.962C154.315 112.413 154.213 112.821 154.008 113.187C153.806 113.553 153.52 113.843 153.152 114.057C152.784 114.268 152.354 114.372 151.861 114.367ZM151.858 113.47C152.129 113.47 152.372 113.403 152.586 113.27C152.8 113.136 152.969 112.957 153.093 112.731C153.218 112.506 153.28 112.254 153.28 111.975C153.28 111.704 153.219 111.457 153.097 111.233C152.977 111.01 152.812 110.833 152.6 110.702C152.391 110.571 152.151 110.505 151.882 110.505C151.677 110.505 151.487 110.544 151.313 110.623C151.14 110.701 150.988 110.809 150.857 110.947C150.726 111.085 150.622 111.244 150.546 111.423C150.473 111.6 150.436 111.788 150.436 111.986C150.436 112.25 150.497 112.495 150.619 112.721C150.743 112.946 150.912 113.128 151.126 113.266C151.342 113.402 151.586 113.47 151.858 113.47ZM156.606 113.304L156.554 113.68C156.52 113.957 156.461 114.244 156.378 114.543C156.298 114.845 156.214 115.124 156.126 115.382C156.041 115.64 155.971 115.844 155.916 115.996H155.184C155.214 115.854 155.255 115.66 155.308 115.416C155.361 115.175 155.413 114.905 155.464 114.605C155.514 114.306 155.552 114.001 155.578 113.691L155.612 113.304H156.606ZM157.901 112.89V112.027L160.956 107.202H161.636V108.472H161.204L159.019 111.931V111.986H163.206V112.89H157.901ZM161.252 114.271V112.628L161.259 112.234V107.202H162.271V114.271H161.252ZM164.26 112.89V112.027L167.315 107.202H167.995V108.472H167.563L165.379 111.931V111.986H169.565V112.89H164.26ZM167.612 114.271V112.628L167.618 112.234V107.202H168.63V114.271H167.612ZM173.229 114.367C172.755 114.367 172.331 114.286 171.959 114.122C171.588 113.959 171.295 113.732 171.078 113.442C170.864 113.15 170.749 112.812 170.733 112.428H171.817C171.831 112.637 171.901 112.819 172.028 112.973C172.156 113.125 172.324 113.242 172.531 113.325C172.739 113.408 172.969 113.449 173.222 113.449C173.5 113.449 173.746 113.401 173.96 113.304C174.177 113.208 174.346 113.073 174.468 112.9C174.59 112.726 174.651 112.524 174.651 112.296C174.651 112.059 174.59 111.851 174.468 111.672C174.348 111.49 174.172 111.347 173.94 111.244C173.71 111.14 173.431 111.088 173.104 111.088H172.507V110.219H173.104C173.367 110.219 173.597 110.172 173.795 110.077C173.995 109.983 174.151 109.852 174.264 109.684C174.377 109.514 174.433 109.314 174.433 109.087C174.433 108.868 174.384 108.678 174.285 108.517C174.188 108.354 174.05 108.226 173.871 108.134C173.693 108.042 173.484 107.996 173.242 107.996C173.012 107.996 172.797 108.039 172.597 108.124C172.399 108.207 172.238 108.326 172.114 108.483C171.99 108.637 171.923 108.822 171.914 109.038H170.882C170.893 108.656 171.006 108.32 171.22 108.031C171.436 107.741 171.722 107.514 172.076 107.351C172.43 107.187 172.824 107.106 173.256 107.106C173.71 107.106 174.101 107.194 174.43 107.371C174.761 107.546 175.016 107.78 175.196 108.072C175.378 108.364 175.467 108.684 175.465 109.031C175.467 109.427 175.357 109.763 175.134 110.039C174.913 110.315 174.618 110.501 174.25 110.595V110.65C174.72 110.721 175.083 110.908 175.341 111.209C175.601 111.511 175.73 111.885 175.727 112.331C175.73 112.72 175.622 113.068 175.403 113.377C175.187 113.685 174.891 113.928 174.516 114.105C174.141 114.28 173.712 114.367 173.229 114.367ZM177.517 114.336C177.328 114.336 177.166 114.269 177.03 114.136C176.895 114 176.827 113.837 176.827 113.646C176.827 113.457 176.895 113.296 177.03 113.163C177.166 113.027 177.328 112.959 177.517 112.959C177.706 112.959 177.868 113.027 178.004 113.163C178.139 113.296 178.207 113.457 178.207 113.646C178.207 113.772 178.175 113.889 178.111 113.995C178.048 114.098 177.966 114.181 177.862 114.243C177.759 114.305 177.644 114.336 177.517 114.336ZM179.634 114.271L182.719 108.169V108.117H179.15V107.202H183.823V108.148L180.748 114.271H179.634ZM187.34 114.367C187.024 114.363 186.714 114.305 186.408 114.195C186.104 114.084 185.828 113.9 185.579 113.642C185.331 113.385 185.132 113.038 184.982 112.604C184.835 112.169 184.761 111.626 184.761 110.975C184.761 110.358 184.822 109.81 184.944 109.332C185.069 108.853 185.247 108.449 185.479 108.12C185.712 107.789 185.992 107.537 186.321 107.364C186.65 107.192 187.02 107.106 187.429 107.106C187.85 107.106 188.224 107.188 188.551 107.354C188.878 107.52 189.142 107.749 189.345 108.041C189.55 108.333 189.68 108.666 189.735 109.038H188.682C188.611 108.744 188.469 108.503 188.258 108.317C188.046 108.131 187.77 108.037 187.429 108.037C186.912 108.037 186.508 108.263 186.218 108.714C185.93 109.165 185.785 109.792 185.783 110.595H185.835C185.957 110.395 186.106 110.224 186.283 110.084C186.463 109.941 186.663 109.832 186.884 109.756C187.107 109.678 187.342 109.639 187.588 109.639C187.998 109.639 188.368 109.739 188.699 109.939C189.033 110.137 189.299 110.411 189.497 110.761C189.694 111.11 189.793 111.511 189.793 111.962C189.793 112.413 189.691 112.821 189.486 113.187C189.284 113.553 188.998 113.843 188.63 114.057C188.262 114.268 187.832 114.372 187.34 114.367ZM187.336 113.47C187.608 113.47 187.85 113.403 188.064 113.27C188.278 113.136 188.447 112.957 188.572 112.731C188.696 112.506 188.758 112.254 188.758 111.975C188.758 111.704 188.697 111.457 188.575 111.233C188.455 111.01 188.29 110.833 188.078 110.702C187.869 110.571 187.629 110.505 187.36 110.505C187.155 110.505 186.966 110.544 186.791 110.623C186.618 110.701 186.466 110.809 186.335 110.947C186.204 111.085 186.1 111.244 186.025 111.423C185.951 111.6 185.914 111.788 185.914 111.986C185.914 112.25 185.975 112.495 186.097 112.721C186.221 112.946 186.39 113.128 186.604 113.266C186.821 113.402 187.065 113.47 187.336 113.47Z" fill="#F1F5F9"/>
<path d="M153.318 127.122H158.493C158.584 127.122 158.673 127.094 158.749 127.043C158.825 126.992 158.884 126.919 158.919 126.834C158.954 126.75 158.962 126.657 158.944 126.567C158.926 126.477 158.881 126.395 158.816 126.33L156.234 123.748C156.191 123.705 156.14 123.67 156.083 123.647C156.027 123.623 155.966 123.611 155.905 123.611C155.844 123.611 155.784 123.623 155.727 123.647C155.671 123.67 155.62 123.705 155.577 123.748L152.994 126.33C152.929 126.395 152.885 126.477 152.867 126.567C152.848 126.657 152.857 126.75 152.892 126.834C152.927 126.919 152.986 126.992 153.062 127.043C153.137 127.094 153.227 127.122 153.318 127.122Z" fill="#10B981"/>
<path d="M162.191 128.271V127.649L164.524 125.095C164.798 124.796 165.023 124.536 165.2 124.315C165.377 124.092 165.509 123.883 165.594 123.687C165.681 123.489 165.725 123.282 165.725 123.066C165.725 122.817 165.665 122.602 165.545 122.421C165.428 122.239 165.267 122.098 165.062 122C164.857 121.901 164.627 121.851 164.372 121.851C164.1 121.851 163.863 121.907 163.661 122.02C163.461 122.131 163.305 122.286 163.195 122.486C163.087 122.686 163.033 122.921 163.033 123.19H162.218C162.218 122.776 162.314 122.413 162.505 122.1C162.696 121.787 162.956 121.543 163.285 121.368C163.616 121.193 163.988 121.106 164.4 121.106C164.814 121.106 165.181 121.193 165.501 121.368C165.82 121.543 166.071 121.779 166.253 122.075C166.435 122.372 166.526 122.702 166.526 123.066C166.526 123.326 166.478 123.58 166.384 123.829C166.292 124.075 166.131 124.35 165.901 124.654C165.673 124.955 165.357 125.323 164.952 125.758L163.364 127.456V127.511H166.65V128.271H162.191ZM168.683 128.326C168.512 128.326 168.366 128.265 168.244 128.143C168.122 128.021 168.061 127.875 168.061 127.705C168.061 127.534 168.122 127.388 168.244 127.266C168.366 127.144 168.512 127.083 168.683 127.083C168.853 127.083 168.999 127.144 169.121 127.266C169.243 127.388 169.304 127.534 169.304 127.705C169.304 127.817 169.275 127.921 169.218 128.015C169.162 128.11 169.088 128.185 168.993 128.243C168.901 128.298 168.798 128.326 168.683 128.326ZM172.852 128.367C172.562 128.363 172.272 128.307 171.982 128.202C171.692 128.096 171.428 127.917 171.188 127.667C170.949 127.414 170.757 127.072 170.612 126.642C170.467 126.209 170.395 125.666 170.395 125.013C170.395 124.387 170.453 123.832 170.571 123.349C170.688 122.864 170.858 122.455 171.081 122.124C171.305 121.79 171.574 121.537 171.889 121.364C172.206 121.192 172.564 121.106 172.962 121.106C173.358 121.106 173.71 121.185 174.018 121.344C174.329 121.5 174.582 121.719 174.778 122C174.973 122.28 175.1 122.604 175.157 122.969H174.315C174.237 122.652 174.085 122.388 173.86 122.179C173.634 121.97 173.335 121.865 172.962 121.865C172.415 121.865 171.983 122.103 171.668 122.579C171.355 123.056 171.198 123.724 171.195 124.585H171.25C171.379 124.389 171.532 124.222 171.71 124.084C171.889 123.944 172.087 123.836 172.303 123.76C172.519 123.684 172.748 123.646 172.99 123.646C173.395 123.646 173.765 123.747 174.101 123.95C174.437 124.15 174.706 124.427 174.909 124.781C175.111 125.133 175.213 125.537 175.213 125.993C175.213 126.43 175.115 126.83 174.919 127.194C174.724 127.555 174.449 127.843 174.094 128.057C173.742 128.268 173.328 128.372 172.852 128.367ZM172.852 127.608C173.142 127.608 173.402 127.535 173.632 127.391C173.864 127.246 174.047 127.051 174.181 126.807C174.316 126.563 174.384 126.292 174.384 125.993C174.384 125.701 174.319 125.435 174.188 125.195C174.059 124.954 173.88 124.762 173.653 124.619C173.427 124.476 173.169 124.405 172.88 124.405C172.661 124.405 172.457 124.449 172.269 124.536C172.08 124.621 171.914 124.739 171.772 124.888C171.631 125.038 171.521 125.209 171.44 125.403C171.36 125.594 171.319 125.795 171.319 126.007C171.319 126.287 171.385 126.55 171.516 126.793C171.65 127.037 171.831 127.234 172.062 127.384C172.294 127.533 172.557 127.608 172.852 127.608ZM178.958 128.367C178.503 128.367 178.097 128.289 177.74 128.133C177.386 127.976 177.104 127.759 176.894 127.48C176.687 127.2 176.574 126.874 176.556 126.504H177.426C177.444 126.731 177.522 126.928 177.66 127.094C177.799 127.257 177.979 127.384 178.202 127.473C178.426 127.563 178.673 127.608 178.944 127.608C179.248 127.608 179.517 127.555 179.752 127.449C179.987 127.343 180.171 127.196 180.304 127.007C180.438 126.819 180.504 126.6 180.504 126.352C180.504 126.092 180.44 125.863 180.311 125.665C180.182 125.465 179.994 125.308 179.745 125.195C179.497 125.083 179.193 125.026 178.834 125.026H178.268V124.267H178.834C179.115 124.267 179.361 124.216 179.573 124.115C179.787 124.014 179.953 123.871 180.073 123.687C180.195 123.503 180.256 123.287 180.256 123.038C180.256 122.799 180.203 122.591 180.097 122.414C179.991 122.237 179.842 122.098 179.648 122C179.457 121.901 179.232 121.851 178.972 121.851C178.728 121.851 178.498 121.896 178.282 121.986C178.068 122.073 177.893 122.201 177.757 122.369C177.621 122.534 177.548 122.735 177.536 122.969H176.708C176.722 122.599 176.833 122.274 177.043 121.996C177.252 121.715 177.526 121.497 177.864 121.34C178.205 121.184 178.579 121.106 178.986 121.106C179.423 121.106 179.798 121.194 180.111 121.371C180.424 121.546 180.664 121.777 180.832 122.065C181 122.353 181.084 122.663 181.084 122.997C181.084 123.395 180.98 123.734 180.77 124.015C180.563 124.296 180.281 124.49 179.925 124.598V124.654C180.371 124.727 180.72 124.917 180.97 125.223C181.221 125.527 181.347 125.903 181.347 126.352C181.347 126.736 181.242 127.081 181.032 127.387C180.825 127.691 180.542 127.93 180.183 128.105C179.824 128.28 179.416 128.367 178.958 128.367ZM186.361 126.945V126.573C186.361 126.315 186.414 126.079 186.52 125.865C186.628 125.649 186.785 125.476 186.99 125.347C187.197 125.216 187.447 125.151 187.742 125.151C188.041 125.151 188.292 125.216 188.494 125.347C188.697 125.476 188.85 125.649 188.953 125.865C189.057 126.079 189.109 126.315 189.109 126.573V126.945C189.109 127.203 189.056 127.44 188.95 127.656C188.846 127.87 188.692 128.043 188.487 128.174C188.285 128.303 188.036 128.367 187.742 128.367C187.443 128.367 187.191 128.303 186.986 128.174C186.781 128.043 186.626 127.87 186.52 127.656C186.414 127.44 186.361 127.203 186.361 126.945ZM187.065 126.573V126.945C187.065 127.159 187.116 127.351 187.217 127.522C187.319 127.69 187.493 127.774 187.742 127.774C187.983 127.774 188.154 127.69 188.253 127.522C188.354 127.351 188.405 127.159 188.405 126.945V126.573C188.405 126.359 188.356 126.168 188.26 126C188.163 125.829 187.99 125.744 187.742 125.744C187.5 125.744 187.327 125.829 187.221 126C187.117 126.168 187.065 126.359 187.065 126.573ZM182.841 122.9V122.528C182.841 122.27 182.894 122.034 183 121.82C183.108 121.604 183.264 121.431 183.469 121.302C183.676 121.171 183.927 121.106 184.222 121.106C184.521 121.106 184.771 121.171 184.974 121.302C185.176 121.431 185.329 121.604 185.433 121.82C185.536 122.034 185.588 122.27 185.588 122.528V122.9C185.588 123.158 185.535 123.395 185.429 123.611C185.326 123.825 185.172 123.998 184.967 124.129C184.765 124.258 184.516 124.322 184.222 124.322C183.922 124.322 183.67 124.258 183.466 124.129C183.261 123.998 183.106 123.825 183 123.611C182.894 123.395 182.841 123.158 182.841 122.9ZM183.545 122.528V122.9C183.545 123.114 183.596 123.306 183.697 123.477C183.798 123.645 183.973 123.729 184.222 123.729C184.463 123.729 184.633 123.645 184.732 123.477C184.834 123.306 184.884 123.114 184.884 122.9V122.528C184.884 122.314 184.836 122.123 184.739 121.955C184.643 121.784 184.47 121.699 184.222 121.699C183.98 121.699 183.806 121.784 183.7 121.955C183.597 122.123 183.545 122.314 183.545 122.528ZM183.103 128.271L187.963 121.202H188.75L183.89 128.271H183.103Z" fill="#10B981"/>
<defs>
<linearGradient id="paint0_linear_3382_45282" x1="34.7378" y1="27.5948" x2="42.2008" y2="27.5948" gradientUnits="userSpaceOnUse">
<stop stop-color="#62D0C9"/>
<stop offset="1" stop-color="#7DE2AC"/>
</linearGradient>
<linearGradient id="paint1_linear_3382_45282" x1="28.8838" y1="27.6044" x2="36.3469" y2="27.6044" gradientUnits="userSpaceOnUse">
<stop stop-color="#3268FB"/>
<stop offset="1" stop-color="#4795FA"/>
</linearGradient>
</defs>
</svg>
